<?xml version="1.0" standalone="no"?>
 <!DOCTYPE svg PUBLIC "-//W3C//DTD SVG 1.1//EN" 
 "http://www.w3.org/Graphics/SVG/1.1/DTD/svg11.dtd"> 
<svg xmlns="http://www.w3.org/2000/svg" version="1.1" 
    width="29.7002cm" height="21.0007cm" viewBox="0 0 116930 82680 ">
<title>SVG Picture created as rhex-demo-F.SilkS.svg date 2018/11/29 18:14:33 </title>
  <desc>Picture generated by PCBNEW </desc>
<g style="fill:#000000; fill-opacity:1;stroke:#000000; stroke-opacity:1;
stroke-linecap:round; stroke-linejoin:round; "
 transform="translate(0 0) scale(1 1)">
</g>
<g style="fill:#000000; fill-opacity:0.0; 
stroke:#000000; stroke-width:-0.000393701; stroke-opacity:1; 
stroke-linecap:round; stroke-linejoin:round;">
</g>
<g style="fill:#000000; fill-opacity:0.0; 
stroke:#000000; stroke-width:59.0551; stroke-opacity:1; 
stroke-linecap:round; stroke-linejoin:round;">
<path d="M36000 9000
L36000 17000
" />
<path d="M36000 17000
L63000 17000
" />
<path d="M63000 17000
L63000 9000
" />
<path d="M63000 9000
L36000 9000
" />
</g>
<g style="fill:#000000; fill-opacity:0.0; 
stroke:#000000; stroke-width:47.2441; stroke-opacity:1; 
stroke-linecap:round; stroke-linejoin:round;">
<path d="M72523 48476
L71476 48476
" />
<path d="M72523 53500
L72523 48476
" />
<path d="M71476 53500
L71476 48476
" />
<path d="M72523 53500
L71476 53500
" />
<path d="M72523 54000
L72523 54523
" />
<path d="M72523 54523
L72000 54523
" />
<path d="M68476 23523
L69523 23523
" />
<path d="M68476 22500
L68476 23523
" />
<path d="M69523 22500
L69523 23523
" />
<path d="M68476 22500
L69523 22500
" />
<path d="M68476 22000
L68476 21476
" />
<path d="M68476 21476
L69000 21476
" />
<path d="M68232 53338
L66767 53338
" />
<path d="M68232 52661
L66767 52661
" />
<path d="M69161 55732
L69161 54267
" />
<path d="M69838 55732
L69838 54267
" />
<path d="M63562 56799
L64437 56799
" />
<path d="M63562 56799
L63562 56773
" />
<path d="M64437 56799
L64437 56773
" />
<path d="M63562 56799
L63778 56799
" />
<path d="M64221 56799
L64437 56799
" />
<path d="M63562 56500
L63562 56200
" />
<path d="M63562 56200
L64000 56200
" />
<path d="M42562 49799
L43437 49799
" />
<path d="M42562 49799
L42562 49773
" />
<path d="M43437 49799
L43437 49773
" />
<path d="M42562 49799
L42778 49799
" />
<path d="M43221 49799
L43437 49799
" />
<path d="M42562 49500
L42562 49200
" />
<path d="M42562 49200
L43000 49200
" />
<path d="M62562 38799
L63437 38799
" />
<path d="M62562 38799
L62562 38773
" />
<path d="M63437 38799
L63437 38773
" />
<path d="M62562 38799
L62778 38799
" />
<path d="M63221 38799
L63437 38799
" />
<path d="M62562 38500
L62562 38200
" />
<path d="M62562 38200
L63000 38200
" />
<path d="M62562 40799
L63437 40799
" />
<path d="M62562 40799
L62562 40773
" />
<path d="M63437 40799
L63437 40773
" />
<path d="M62562 40799
L62778 40799
" />
<path d="M63221 40799
L63437 40799
" />
<path d="M62562 40500
L62562 40200
" />
<path d="M62562 40200
L63000 40200
" />
<path d="M62562 41799
L63437 41799
" />
<path d="M62562 41799
L62562 41773
" />
<path d="M63437 41799
L63437 41773
" />
<path d="M62562 41799
L62778 41799
" />
<path d="M63221 41799
L63437 41799
" />
<path d="M62562 41500
L62562 41200
" />
<path d="M62562 41200
L63000 41200
" />
<path d="M43437 56200
L42562 56200
" />
<path d="M43437 56200
L43437 56226
" />
<path d="M42562 56200
L42562 56226
" />
<path d="M43437 56200
L43221 56200
" />
<path d="M42778 56200
L42562 56200
" />
<path d="M43437 56500
L43437 56799
" />
<path d="M43437 56799
L43000 56799
" />
<path d="M44437 56200
L43562 56200
" />
<path d="M44437 56200
L44437 56226
" />
<path d="M43562 56200
L43562 56226
" />
<path d="M44437 56200
L44221 56200
" />
<path d="M43778 56200
L43562 56200
" />
<path d="M44437 56500
L44437 56799
" />
<path d="M44437 56799
L44000 56799
" />
<path d="M44437 55200
L43562 55200
" />
<path d="M44437 55200
L44437 55226
" />
<path d="M43562 55200
L43562 55226
" />
<path d="M44437 55200
L44221 55200
" />
<path d="M43778 55200
L43562 55200
" />
<path d="M44437 55500
L44437 55799
" />
<path d="M44437 55799
L44000 55799
" />
<path d="M62562 48799
L63437 48799
" />
<path d="M62562 48799
L62562 48773
" />
<path d="M63437 48799
L63437 48773
" />
<path d="M62562 48799
L62778 48799
" />
<path d="M63221 48799
L63437 48799
" />
<path d="M62562 48500
L62562 48200
" />
<path d="M62562 48200
L63000 48200
" />
<path d="M63562 49799
L64437 49799
" />
<path d="M63562 49799
L63562 49773
" />
<path d="M64437 49799
L64437 49773
" />
<path d="M63562 49799
L63778 49799
" />
<path d="M64221 49799
L64437 49799
" />
<path d="M63562 49500
L63562 49200
" />
<path d="M63562 49200
L64000 49200
" />
<path d="M62562 56799
L63437 56799
" />
<path d="M62562 56799
L62562 56773
" />
<path d="M63437 56799
L63437 56773
" />
<path d="M62562 56799
L62778 56799
" />
<path d="M63221 56799
L63437 56799
" />
<path d="M62562 56500
L62562 56200
" />
<path d="M62562 56200
L63000 56200
" />
<path d="M42562 37799
L43437 37799
" />
<path d="M42562 37799
L42562 37773
" />
<path d="M43437 37799
L43437 37773
" />
<path d="M42562 37799
L42778 37799
" />
<path d="M43221 37799
L43437 37799
" />
<path d="M42562 37500
L42562 37200
" />
<path d="M42562 37200
L43000 37200
" />
<path d="M43562 37799
L44437 37799
" />
<path d="M43562 37799
L43562 37773
" />
<path d="M44437 37799
L44437 37773
" />
<path d="M43562 37799
L43778 37799
" />
<path d="M44221 37799
L44437 37799
" />
<path d="M43562 37500
L43562 37200
" />
<path d="M43562 37200
L44000 37200
" />
<path d="M42562 36799
L43437 36799
" />
<path d="M42562 36799
L42562 36773
" />
<path d="M43437 36799
L43437 36773
" />
<path d="M42562 36799
L42778 36799
" />
<path d="M43221 36799
L43437 36799
" />
<path d="M42562 36500
L42562 36200
" />
<path d="M42562 36200
L43000 36200
" />
<path d="M42562 51799
L43437 51799
" />
<path d="M42562 51799
L42562 51773
" />
<path d="M43437 51799
L43437 51773
" />
<path d="M42562 51799
L42778 51799
" />
<path d="M43221 51799
L43437 51799
" />
<path d="M42562 51500
L42562 51200
" />
<path d="M42562 51200
L43000 51200
" />
<path d="M63562 42799
L64437 42799
" />
<path d="M63562 42799
L63562 42773
" />
<path d="M64437 42799
L64437 42773
" />
<path d="M63562 42799
L63778 42799
" />
<path d="M64221 42799
L64437 42799
" />
<path d="M63562 42500
L63562 42200
" />
<path d="M63562 42200
L64000 42200
" />
<path d="M44437 43200
L43562 43200
" />
<path d="M44437 43200
L44437 43226
" />
<path d="M43562 43200
L43562 43226
" />
<path d="M44437 43200
L44221 43200
" />
<path d="M43778 43200
L43562 43200
" />
<path d="M44437 43500
L44437 43799
" />
<path d="M44437 43799
L44000 43799
" />
<path d="M43437 41200
L42562 41200
" />
<path d="M43437 41200
L43437 41226
" />
<path d="M42562 41200
L42562 41226
" />
<path d="M43437 41200
L43221 41200
" />
<path d="M42778 41200
L42562 41200
" />
<path d="M43437 41500
L43437 41799
" />
<path d="M43437 41799
L43000 41799
" />
<path d="M44437 41200
L43562 41200
" />
<path d="M44437 41200
L44437 41226
" />
<path d="M43562 41200
L43562 41226
" />
<path d="M44437 41200
L44221 41200
" />
<path d="M43778 41200
L43562 41200
" />
<path d="M44437 41500
L44437 41799
" />
<path d="M44437 41799
L44000 41799
" />
<path d="M42562 39799
L43437 39799
" />
<path d="M42562 39799
L42562 39773
" />
<path d="M43437 39799
L43437 39773
" />
<path d="M42562 39799
L42778 39799
" />
<path d="M43221 39799
L43437 39799
" />
<path d="M42562 39500
L42562 39200
" />
<path d="M42562 39200
L43000 39200
" />
<path d="M54273 40937
L54273 40621
" />
<path d="M54273 40378
L54273 40062
" />
<path d="M53299 40937
L54273 40937
" />
<path d="M53299 40062
L54273 40062
" />
<path d="M53299 40937
L53299 40721
" />
<path d="M53299 40278
L53299 40062
" />
<path d="M53000 40937
L52700 40937
" />
<path d="M52700 40937
L52700 40500
" />
<path d="M54273 44937
L54273 44621
" />
<path d="M54273 44378
L54273 44062
" />
<path d="M53299 44937
L54273 44937
" />
<path d="M53299 44062
L54273 44062
" />
<path d="M53299 44937
L53299 44721
" />
<path d="M53299 44278
L53299 44062
" />
<path d="M53000 44937
L52700 44937
" />
<path d="M52700 44937
L52700 44500
" />
<path d="M54273 42937
L54273 42621
" />
<path d="M54273 42378
L54273 42062
" />
<path d="M53299 42937
L54273 42937
" />
<path d="M53299 42062
L54273 42062
" />
<path d="M53299 42937
L53299 42721
" />
<path d="M53299 42278
L53299 42062
" />
<path d="M53000 42937
L52700 42937
" />
<path d="M52700 42937
L52700 42500
" />
<path d="M54273 48937
L54273 48621
" />
<path d="M54273 48378
L54273 48062
" />
<path d="M53299 48937
L54273 48937
" />
<path d="M53299 48062
L54273 48062
" />
<path d="M53299 48937
L53299 48721
" />
<path d="M53299 48278
L53299 48062
" />
<path d="M53000 48937
L52700 48937
" />
<path d="M52700 48937
L52700 48500
" />
<path d="M54273 46937
L54273 46621
" />
<path d="M54273 46378
L54273 46062
" />
<path d="M53299 46937
L54273 46937
" />
<path d="M53299 46062
L54273 46062
" />
<path d="M53299 46937
L53299 46721
" />
<path d="M53299 46278
L53299 46062
" />
<path d="M53000 46937
L52700 46937
" />
<path d="M52700 46937
L52700 46500
" />
<path d="M54273 50937
L54273 50621
" />
<path d="M54273 50378
L54273 50062
" />
<path d="M53299 50937
L54273 50937
" />
<path d="M53299 50062
L54273 50062
" />
<path d="M53299 50937
L53299 50721
" />
<path d="M53299 50278
L53299 50062
" />
<path d="M53000 50937
L52700 50937
" />
<path d="M52700 50937
L52700 50500
" />
<path d="M59773 32937
L59773 32621
" />
<path d="M59773 32378
L59773 32062
" />
<path d="M58799 32937
L59773 32937
" />
<path d="M58799 32062
L59773 32062
" />
<path d="M58799 32937
L58799 32721
" />
<path d="M58799 32278
L58799 32062
" />
<path d="M58500 32937
L58200 32937
" />
<path d="M58200 32937
L58200 32500
" />
<path d="M38273 49437
L38273 49121
" />
<path d="M38273 48878
L38273 48562
" />
<path d="M37299 49437
L38273 49437
" />
<path d="M37299 48562
L38273 48562
" />
<path d="M37299 49437
L37299 49221
" />
<path d="M37299 48778
L37299 48562
" />
<path d="M37000 49437
L36700 49437
" />
<path d="M36700 49437
L36700 49000
" />
<path d="M59773 40937
L59773 40621
" />
<path d="M59773 40378
L59773 40062
" />
<path d="M58799 40937
L59773 40937
" />
<path d="M58799 40062
L59773 40062
" />
<path d="M58799 40937
L58799 40721
" />
<path d="M58799 40278
L58799 40062
" />
<path d="M58500 40937
L58200 40937
" />
<path d="M58200 40937
L58200 40500
" />
<path d="M59773 36937
L59773 36621
" />
<path d="M59773 36378
L59773 36062
" />
<path d="M58799 36937
L59773 36937
" />
<path d="M58799 36062
L59773 36062
" />
<path d="M58799 36937
L58799 36721
" />
<path d="M58799 36278
L58799 36062
" />
<path d="M58500 36937
L58200 36937
" />
<path d="M58200 36937
L58200 36500
" />
<path d="M59773 52437
L59773 52121
" />
<path d="M59773 51878
L59773 51562
" />
<path d="M58799 52437
L59773 52437
" />
<path d="M58799 51562
L59773 51562
" />
<path d="M58799 52437
L58799 52221
" />
<path d="M58799 51778
L58799 51562
" />
<path d="M58500 52437
L58200 52437
" />
<path d="M58200 52437
L58200 52000
" />
<path d="M59773 48937
L59773 48621
" />
<path d="M59773 48378
L59773 48062
" />
<path d="M58799 48937
L59773 48937
" />
<path d="M58799 48062
L59773 48062
" />
<path d="M58799 48937
L58799 48721
" />
<path d="M58799 48278
L58799 48062
" />
<path d="M58500 48937
L58200 48937
" />
<path d="M58200 48937
L58200 48500
" />
<path d="M38273 36937
L38273 36621
" />
<path d="M38273 36378
L38273 36062
" />
<path d="M37299 36937
L38273 36937
" />
<path d="M37299 36062
L38273 36062
" />
<path d="M37299 36937
L37299 36721
" />
<path d="M37299 36278
L37299 36062
" />
<path d="M37000 36937
L36700 36937
" />
<path d="M36700 36937
L36700 36500
" />
<path d="M38273 44937
L38273 44621
" />
<path d="M38273 44378
L38273 44062
" />
<path d="M37299 44937
L38273 44937
" />
<path d="M37299 44062
L38273 44062
" />
<path d="M37299 44937
L37299 44721
" />
<path d="M37299 44278
L37299 44062
" />
<path d="M37000 44937
L36700 44937
" />
<path d="M36700 44937
L36700 44500
" />
<path d="M38273 53937
L38273 53621
" />
<path d="M38273 53378
L38273 53062
" />
<path d="M37299 53937
L38273 53937
" />
<path d="M37299 53062
L38273 53062
" />
<path d="M37299 53937
L37299 53721
" />
<path d="M37299 53278
L37299 53062
" />
<path d="M37000 53937
L36700 53937
" />
<path d="M36700 53937
L36700 53500
" />
<path d="M38273 40937
L38273 40621
" />
<path d="M38273 40378
L38273 40062
" />
<path d="M37299 40937
L38273 40937
" />
<path d="M37299 40062
L38273 40062
" />
<path d="M37299 40937
L37299 40721
" />
<path d="M37299 40278
L37299 40062
" />
<path d="M37000 40937
L36700 40937
" />
<path d="M36700 40937
L36700 40500
" />
<path d="M38273 32937
L38273 32621
" />
<path d="M38273 32378
L38273 32062
" />
<path d="M37299 32937
L38273 32937
" />
<path d="M37299 32062
L38273 32062
" />
<path d="M37299 32937
L37299 32721
" />
<path d="M37299 32278
L37299 32062
" />
<path d="M37000 32937
L36700 32937
" />
<path d="M36700 32937
L36700 32500
" />
<path d="M59773 44937
L59773 44621
" />
<path d="M59773 44378
L59773 44062
" />
<path d="M58799 44937
L59773 44937
" />
<path d="M58799 44062
L59773 44062
" />
<path d="M58799 44937
L58799 44721
" />
<path d="M58799 44278
L58799 44062
" />
<path d="M58500 44937
L58200 44937
" />
<path d="M58200 44937
L58200 44500
" />
<path d="M31633 11948
L30366 11948
" />
<path d="M30366 11948
L30366 14003
" />
<path d="M30366 14003
L31633 14003
" />
<path d="M31633 14003
L31633 11948
" />
<path d="M31000 11885
L31000 11948
" />
<path d="M31000 14066
L31000 14003
" />
<path d="M28133 11948
L26866 11948
" />
<path d="M26866 11948
L26866 14003
" />
<path d="M26866 14003
L28133 14003
" />
<path d="M28133 14003
L28133 11948
" />
<path d="M27500 11885
L27500 11948
" />
<path d="M27500 14066
L27500 14003
" />
<path d="M62633 21448
L61366 21448
" />
<path d="M61366 21448
L61366 23503
" />
<path d="M61366 23503
L62633 23503
" />
<path d="M62633 23503
L62633 21448
" />
<path d="M62000 21385
L62000 21448
" />
<path d="M62000 23566
L62000 23503
" />
<path d="M66133 21448
L64866 21448
" />
<path d="M64866 21448
L64866 23503
" />
<path d="M64866 23503
L66133 23503
" />
<path d="M66133 23503
L66133 21448
" />
<path d="M65500 21385
L65500 21448
" />
<path d="M65500 23566
L65500 23503
" />
<path d="M59133 21448
L57866 21448
" />
<path d="M57866 21448
L57866 23503
" />
<path d="M57866 23503
L59133 23503
" />
<path d="M59133 23503
L59133 21448
" />
<path d="M58500 21385
L58500 21448
" />
<path d="M58500 23566
L58500 23503
" />
<path d="M73366 14051
L74633 14051
" />
<path d="M74633 14051
L74633 11996
" />
<path d="M74633 11996
L73366 11996
" />
<path d="M73366 11996
L73366 14051
" />
<path d="M74000 14114
L74000 14051
" />
<path d="M74000 11933
L74000 11996
" />
<path d="M70366 14051
L71633 14051
" />
<path d="M71633 14051
L71633 11996
" />
<path d="M71633 11996
L70366 11996
" />
<path d="M70366 11996
L70366 14051
" />
<path d="M71000 14114
L71000 14051
" />
<path d="M71000 11933
L71000 11996
" />
<path d="M67366 14051
L68633 14051
" />
<path d="M68633 14051
L68633 11996
" />
<path d="M68633 11996
L67366 11996
" />
<path d="M67366 11996
L67366 14051
" />
<path d="M68000 14114
L68000 14051
" />
<path d="M68000 11933
L68000 11996
" />
<path d="M42133 21448
L40866 21448
" />
<path d="M40866 21448
L40866 23503
" />
<path d="M40866 23503
L42133 23503
" />
<path d="M42133 23503
L42133 21448
" />
<path d="M41500 21385
L41500 21448
" />
<path d="M41500 23566
L41500 23503
" />
<path d="M24633 11948
L23366 11948
" />
<path d="M23366 11948
L23366 14003
" />
<path d="M23366 14003
L24633 14003
" />
<path d="M24633 14003
L24633 11948
" />
<path d="M24000 11885
L24000 11948
" />
<path d="M24000 14066
L24000 14003
" />
<path d="M38633 21448
L37366 21448
" />
<path d="M37366 21448
L37366 23503
" />
<path d="M37366 23503
L38633 23503
" />
<path d="M38633 23503
L38633 21448
" />
<path d="M38000 21385
L38000 21448
" />
<path d="M38000 23566
L38000 23503
" />
<path d="M35133 21448
L33866 21448
" />
<path d="M33866 21448
L33866 23503
" />
<path d="M33866 23503
L35133 23503
" />
<path d="M35133 23503
L35133 21448
" />
<path d="M34500 21385
L34500 21448
" />
<path d="M34500 23566
L34500 23503
" />
<path d="M52448 36866
L52448 38133
" />
<path d="M52448 38133
L54503 38133
" />
<path d="M54503 38133
L54503 36866
" />
<path d="M54503 36866
L52448 36866
" />
<path d="M52385 37500
L52448 37500
" />
<path d="M54566 37500
L54503 37500
" />
<path d="M52948 53366
L52948 54633
" />
<path d="M52948 54633
L55003 54633
" />
<path d="M55003 54633
L55003 53366
" />
<path d="M55003 53366
L52948 53366
" />
<path d="M52885 54000
L52948 54000
" />
<path d="M55066 54000
L55003 54000
" />
</g>
<g style="fill:#000000; fill-opacity:0.0; 
stroke:#000000; stroke-width:59.0551; stroke-opacity:1; 
stroke-linecap:round; stroke-linejoin:round;">
<path d="M54500 26000
L46500 26000
" />
<path d="M46500 26000
L46500 19500
" />
<path d="M46500 19500
L54500 19500
" />
<path d="M54500 19500
L54500 26000
" />
</g>
<g style="fill:#000000; fill-opacity:0.0; 
stroke:#000000; stroke-width:47.2441; stroke-opacity:1; 
stroke-linecap:round; stroke-linejoin:round;">
<path d="M21476 21523
L22523 21523
" />
<path d="M21476 21500
L21476 21523
" />
<path d="M22523 21500
L22523 21523
" />
<path d="M21476 21500
L22523 21500
" />
<path d="M21476 21000
L21476 20476
" />
<path d="M21476 20476
L22000 20476
" />
<path d="M21476 24523
L22523 24523
" />
<path d="M21476 24500
L21476 24523
" />
<path d="M22523 24500
L22523 24523
" />
<path d="M21476 24500
L22523 24500
" />
<path d="M21476 24000
L21476 23476
" />
<path d="M21476 23476
L22000 23476
" />
</g>
<g style="fill:#000000; fill-opacity:0.0; 
stroke:#000000; stroke-width:59.0551; stroke-opacity:1; 
stroke-linecap:round; stroke-linejoin:round;">
<path d="M36618 11374
L36618 10981
L36712 10981
L36768 11000
L36806 11037
L36825 11074
L36843 11149
L36843 11206
L36825 11281
L36806 11318
L36768 11356
L36712 11374
L36618 11374
" />
<path d="M37237 11337
L37218 11356
L37162 11374
L37125 11374
L37068 11356
L37031 11318
L37012 11281
L36993 11206
L36993 11149
L37012 11074
L37031 11037
L37068 11000
L37125 10981
L37162 10981
L37218 11000
L37237 11018
" />
<path d="M37406 11374
L37406 10981
L37500 10981
L37556 11000
L37593 11037
L37612 11074
L37631 11149
L37631 11206
L37612 11281
L37593 11318
L37556 11356
L37500 11374
L37406 11374
" />
<path d="M38024 11337
L38006 11356
L37949 11374
L37912 11374
L37856 11356
L37818 11318
L37799 11281
L37781 11206
L37781 11149
L37799 11074
L37818 11037
L37856 11000
L37912 10981
L37949 10981
L38006 11000
L38024 11018
" />
<path d="M38399 11374
L38174 11374
" />
<path d="M38287 11374
L38287 10981
L38249 11037
L38212 11074
L38174 11093
" />
<path d="M71259 55095
L71259 54701
" />
<path d="M71259 54889
L71484 54889
" />
<path d="M71484 55095
L71484 54701
" />
<path d="M71896 55057
L71878 55076
L71821 55095
L71784 55095
L71728 55076
L71690 55039
L71671 55001
L71653 54926
L71653 54870
L71671 54795
L71690 54757
L71728 54720
L71784 54701
L71821 54701
L71878 54720
L71896 54739
" />
<path d="M72065 54945
L72365 54945
" />
<path d="M72721 54701
L72646 54701
L72609 54720
L72590 54739
L72553 54795
L72534 54870
L72534 55020
L72553 55057
L72571 55076
L72609 55095
L72684 55095
L72721 55076
L72740 55057
L72759 55020
L72759 54926
L72740 54889
L72721 54870
L72684 54851
L72609 54851
L72571 54870
L72553 54889
L72534 54926
" />
<path d="M68868 20867
L68868 21148
L68850 21204
L68812 21242
L68756 21260
L68718 21260
" />
<path d="M69262 21260
L69037 21260
" />
<path d="M69149 21260
L69149 20867
L69112 20923
L69074 20960
L69037 20979
" />
<path d="M67434 53910
L67303 53722
" />
<path d="M67209 53910
L67209 53516
L67359 53516
L67396 53535
L67415 53554
L67434 53591
L67434 53647
L67415 53685
L67396 53704
L67359 53722
L67209 53722
" />
<path d="M67809 53910
L67584 53910
" />
<path d="M67696 53910
L67696 53516
L67659 53572
L67621 53610
L67584 53629
" />
<path d="M68945 55065
L68758 55196
" />
<path d="M68945 55290
L68552 55290
L68552 55140
L68570 55103
L68589 55084
L68627 55065
L68683 55065
L68720 55084
L68739 55103
L68758 55140
L68758 55290
" />
<path d="M68589 54915
L68570 54896
L68552 54859
L68552 54765
L68570 54728
L68589 54709
L68627 54690
L68664 54690
L68720 54709
L68945 54934
L68945 54690
" />
<path d="M63512 56010
L63512 55617
L63662 55617
L63700 55635
L63718 55654
L63737 55692
L63737 55748
L63718 55785
L63700 55804
L63662 55823
L63512 55823
" />
<path d="M64131 55973
L64112 55992
L64056 56010
L64018 56010
L63962 55992
L63925 55954
L63906 55917
L63887 55842
L63887 55785
L63906 55710
L63925 55673
L63962 55635
L64018 55617
L64056 55617
L64112 55635
L64131 55654
" />
<path d="M64262 55617
L64524 55617
L64356 56010
" />
<path d="M42343 49010
L42343 48617
L42493 48617
L42531 48635
L42550 48654
L42568 48692
L42568 48748
L42550 48785
L42531 48804
L42493 48823
L42343 48823
" />
<path d="M42737 48804
L42868 48804
" />
<path d="M42925 49010
L42737 49010
L42737 48617
L42925 48617
" />
<path d="M43299 49010
L43074 49010
" />
<path d="M43187 49010
L43187 48617
L43149 48673
L43112 48710
L43074 48729
" />
<path d="M43656 48617
L43468 48617
L43449 48804
L43468 48785
L43506 48767
L43599 48767
L43637 48785
L43656 48804
L43674 48842
L43674 48935
L43656 48973
L43637 48992
L43599 49010
L43506 49010
L43468 48992
L43449 48973
" />
<path d="M62531 38010
L62531 37617
L62681 37617
L62718 37635
L62737 37654
L62756 37692
L62756 37748
L62737 37785
L62718 37804
L62681 37823
L62531 37823
" />
<path d="M62925 37804
L63056 37804
" />
<path d="M63112 38010
L62925 38010
L62925 37617
L63112 37617
" />
<path d="M63449 37617
L63374 37617
L63337 37635
L63318 37654
L63281 37710
L63262 37785
L63262 37935
L63281 37973
L63299 37992
L63337 38010
L63412 38010
L63449 37992
L63468 37973
L63487 37935
L63487 37842
L63468 37804
L63449 37785
L63412 37767
L63337 37767
L63299 37785
L63281 37804
L63262 37842
" />
<path d="M62531 40010
L62531 39617
L62681 39617
L62718 39635
L62737 39654
L62756 39692
L62756 39748
L62737 39785
L62718 39804
L62681 39823
L62531 39823
" />
<path d="M62925 39804
L63056 39804
" />
<path d="M63112 40010
L62925 40010
L62925 39617
L63112 39617
" />
<path d="M63262 39654
L63281 39635
L63318 39617
L63412 39617
L63449 39635
L63468 39654
L63487 39692
L63487 39729
L63468 39785
L63243 40010
L63487 40010
" />
<path d="M62531 41010
L62531 40617
L62681 40617
L62718 40635
L62737 40654
L62756 40692
L62756 40748
L62737 40785
L62718 40804
L62681 40823
L62531 40823
" />
<path d="M62925 40804
L63056 40804
" />
<path d="M63112 41010
L62925 41010
L62925 40617
L63112 40617
" />
<path d="M63356 40617
L63393 40617
L63431 40635
L63449 40654
L63468 40692
L63487 40767
L63487 40860
L63468 40935
L63449 40973
L63431 40992
L63393 41010
L63356 41010
L63318 40992
L63299 40973
L63281 40935
L63262 40860
L63262 40767
L63281 40692
L63299 40654
L63318 40635
L63356 40617
" />
<path d="M42325 57345
L42325 56951
L42475 56951
L42512 56970
L42531 56989
L42550 57026
L42550 57082
L42531 57120
L42512 57139
L42475 57157
L42325 57157
" />
<path d="M42718 57345
L42718 56951
L42812 56951
L42868 56970
L42906 57007
L42925 57045
L42943 57120
L42943 57176
L42925 57251
L42906 57289
L42868 57326
L42812 57345
L42718 57345
" />
<path d="M43318 57345
L43093 57345
" />
<path d="M43206 57345
L43206 56951
L43168 57007
L43131 57045
L43093 57064
" />
<path d="M43656 57082
L43656 57345
" />
<path d="M43562 56932
L43468 57214
L43712 57214
" />
<path d="M43325 57345
L43325 56951
L43475 56951
L43512 56970
L43531 56989
L43550 57026
L43550 57082
L43531 57120
L43512 57139
L43475 57157
L43325 57157
" />
<path d="M43718 57345
L43718 56951
L43812 56951
L43868 56970
L43906 57007
L43925 57045
L43943 57120
L43943 57176
L43925 57251
L43906 57289
L43868 57326
L43812 57345
L43718 57345
" />
<path d="M44318 57345
L44093 57345
" />
<path d="M44206 57345
L44206 56951
L44168 57007
L44131 57045
L44093 57064
" />
<path d="M44449 56951
L44693 56951
L44562 57101
L44618 57101
L44656 57120
L44674 57139
L44693 57176
L44693 57270
L44674 57307
L44656 57326
L44618 57345
L44506 57345
L44468 57326
L44449 57307
" />
<path d="M43325 56345
L43325 55951
L43475 55951
L43512 55970
L43531 55989
L43550 56026
L43550 56082
L43531 56120
L43512 56139
L43475 56157
L43325 56157
" />
<path d="M43718 56345
L43718 55951
L43812 55951
L43868 55970
L43906 56007
L43925 56045
L43943 56120
L43943 56176
L43925 56251
L43906 56289
L43868 56326
L43812 56345
L43718 56345
" />
<path d="M44318 56345
L44093 56345
" />
<path d="M44206 56345
L44206 55951
L44168 56007
L44131 56045
L44093 56064
" />
<path d="M44468 55989
L44487 55970
L44524 55951
L44618 55951
L44656 55970
L44674 55989
L44693 56026
L44693 56064
L44674 56120
L44449 56345
L44693 56345
" />
<path d="M62512 48010
L62512 47617
L62662 47617
L62700 47635
L62718 47654
L62737 47692
L62737 47748
L62718 47785
L62700 47804
L62662 47823
L62512 47823
" />
<path d="M62906 48010
L62906 47617
L63000 47617
L63056 47635
L63093 47673
L63112 47710
L63131 47785
L63131 47842
L63112 47917
L63093 47954
L63056 47992
L63000 48010
L62906 48010
" />
<path d="M63262 47617
L63506 47617
L63374 47767
L63431 47767
L63468 47785
L63487 47804
L63506 47842
L63506 47935
L63487 47973
L63468 47992
L63431 48010
L63318 48010
L63281 47992
L63262 47973
" />
<path d="M63512 49010
L63512 48617
L63662 48617
L63700 48635
L63718 48654
L63737 48692
L63737 48748
L63718 48785
L63700 48804
L63662 48823
L63512 48823
" />
<path d="M63906 49010
L63906 48617
L64000 48617
L64056 48635
L64093 48673
L64112 48710
L64131 48785
L64131 48842
L64112 48917
L64093 48954
L64056 48992
L64000 49010
L63906 49010
" />
<path d="M64281 48654
L64299 48635
L64337 48617
L64431 48617
L64468 48635
L64487 48654
L64506 48692
L64506 48729
L64487 48785
L64262 49010
L64506 49010
" />
<path d="M62512 56010
L62512 55617
L62662 55617
L62700 55635
L62718 55654
L62737 55692
L62737 55748
L62718 55785
L62700 55804
L62662 55823
L62512 55823
" />
<path d="M63131 55973
L63112 55992
L63056 56010
L63018 56010
L62962 55992
L62925 55954
L62906 55917
L62887 55842
L62887 55785
L62906 55710
L62925 55673
L62962 55635
L63018 55617
L63056 55617
L63112 55635
L63131 55654
" />
<path d="M63468 55617
L63393 55617
L63356 55635
L63337 55654
L63299 55710
L63281 55785
L63281 55935
L63299 55973
L63318 55992
L63356 56010
L63431 56010
L63468 55992
L63487 55973
L63506 55935
L63506 55842
L63487 55804
L63468 55785
L63431 55767
L63356 55767
L63318 55785
L63299 55804
L63281 55842
" />
<path d="M42512 37010
L42512 36617
L42662 36617
L42700 36635
L42718 36654
L42737 36692
L42737 36748
L42718 36785
L42700 36804
L42662 36823
L42512 36823
" />
<path d="M43131 36973
L43112 36992
L43056 37010
L43018 37010
L42962 36992
L42925 36954
L42906 36917
L42887 36842
L42887 36785
L42906 36710
L42925 36673
L42962 36635
L43018 36617
L43056 36617
L43112 36635
L43131 36654
" />
<path d="M43262 36617
L43506 36617
L43374 36767
L43431 36767
L43468 36785
L43487 36804
L43506 36842
L43506 36935
L43487 36973
L43468 36992
L43431 37010
L43318 37010
L43281 36992
L43262 36973
" />
<path d="M43512 37010
L43512 36617
L43662 36617
L43700 36635
L43718 36654
L43737 36692
L43737 36748
L43718 36785
L43700 36804
L43662 36823
L43512 36823
" />
<path d="M44131 36973
L44112 36992
L44056 37010
L44018 37010
L43962 36992
L43925 36954
L43906 36917
L43887 36842
L43887 36785
L43906 36710
L43925 36673
L43962 36635
L44018 36617
L44056 36617
L44112 36635
L44131 36654
" />
<path d="M44281 36654
L44299 36635
L44337 36617
L44431 36617
L44468 36635
L44487 36654
L44506 36692
L44506 36729
L44487 36785
L44262 37010
L44506 37010
" />
<path d="M42512 36010
L42512 35617
L42662 35617
L42700 35635
L42718 35654
L42737 35692
L42737 35748
L42718 35785
L42700 35804
L42662 35823
L42512 35823
" />
<path d="M43131 35973
L43112 35992
L43056 36010
L43018 36010
L42962 35992
L42925 35954
L42906 35917
L42887 35842
L42887 35785
L42906 35710
L42925 35673
L42962 35635
L43018 35617
L43056 35617
L43112 35635
L43131 35654
" />
<path d="M43506 36010
L43281 36010
" />
<path d="M43393 36010
L43393 35617
L43356 35673
L43318 35710
L43281 35729
" />
<path d="M42325 51010
L42325 50617
L42475 50617
L42512 50635
L42531 50654
L42550 50692
L42550 50748
L42531 50785
L42512 50804
L42475 50823
L42325 50823
" />
<path d="M42850 50804
L42906 50823
L42925 50842
L42943 50879
L42943 50935
L42925 50973
L42906 50992
L42868 51010
L42718 51010
L42718 50617
L42850 50617
L42887 50635
L42906 50654
L42925 50692
L42925 50729
L42906 50767
L42887 50785
L42850 50804
L42718 50804
" />
<path d="M43318 51010
L43093 51010
" />
<path d="M43206 51010
L43206 50617
L43168 50673
L43131 50710
L43093 50729
" />
<path d="M43449 50617
L43693 50617
L43562 50767
L43618 50767
L43656 50785
L43674 50804
L43693 50842
L43693 50935
L43674 50973
L43656 50992
L43618 51010
L43506 51010
L43468 50992
L43449 50973
" />
<path d="M63512 42010
L63512 41617
L63662 41617
L63700 41635
L63718 41654
L63737 41692
L63737 41748
L63718 41785
L63700 41804
L63662 41823
L63512 41823
" />
<path d="M64037 41804
L64093 41823
L64112 41842
L64131 41879
L64131 41935
L64112 41973
L64093 41992
L64056 42010
L63906 42010
L63906 41617
L64037 41617
L64074 41635
L64093 41654
L64112 41692
L64112 41729
L64093 41767
L64074 41785
L64037 41804
L63906 41804
" />
<path d="M64318 42010
L64393 42010
L64431 41992
L64449 41973
L64487 41917
L64506 41842
L64506 41692
L64487 41654
L64468 41635
L64431 41617
L64356 41617
L64318 41635
L64299 41654
L64281 41692
L64281 41785
L64299 41823
L64318 41842
L64356 41860
L64431 41860
L64468 41842
L64487 41823
L64506 41785
" />
<path d="M43512 44345
L43512 43951
L43662 43951
L43700 43970
L43718 43989
L43737 44026
L43737 44082
L43718 44120
L43700 44139
L43662 44157
L43512 44157
" />
<path d="M44037 44139
L44093 44157
L44112 44176
L44131 44214
L44131 44270
L44112 44307
L44093 44326
L44056 44345
L43906 44345
L43906 43951
L44037 43951
L44074 43970
L44093 43989
L44112 44026
L44112 44064
L44093 44101
L44074 44120
L44037 44139
L43906 44139
" />
<path d="M44374 43951
L44412 43951
L44449 43970
L44468 43989
L44487 44026
L44506 44101
L44506 44195
L44487 44270
L44468 44307
L44449 44326
L44412 44345
L44374 44345
L44337 44326
L44318 44307
L44299 44270
L44281 44195
L44281 44101
L44299 44026
L44318 43989
L44337 43970
L44374 43951
" />
<path d="M42540 42345
L42540 41951
L42690 41951
L42728 41970
L42746 41989
L42765 42026
L42765 42082
L42746 42120
L42728 42139
L42690 42157
L42540 42157
" />
<path d="M42915 42232
L43103 42232
" />
<path d="M42878 42345
L43009 41951
L43140 42345
" />
<path d="M43234 41951
L43496 41951
L43328 42345
" />
<path d="M43540 42345
L43540 41951
L43690 41951
L43728 41970
L43746 41989
L43765 42026
L43765 42082
L43746 42120
L43728 42139
L43690 42157
L43540 42157
" />
<path d="M43915 42232
L44103 42232
" />
<path d="M43878 42345
L44009 41951
L44140 42345
" />
<path d="M44440 41951
L44365 41951
L44328 41970
L44309 41989
L44271 42045
L44253 42120
L44253 42270
L44271 42307
L44290 42326
L44328 42345
L44403 42345
L44440 42326
L44459 42307
L44478 42270
L44478 42176
L44459 42139
L44440 42120
L44403 42101
L44328 42101
L44290 42120
L44271 42139
L44253 42176
" />
<path d="M42540 39010
L42540 38617
L42690 38617
L42728 38635
L42746 38654
L42765 38692
L42765 38748
L42746 38785
L42728 38804
L42690 38823
L42540 38823
" />
<path d="M42915 38898
L43103 38898
" />
<path d="M42878 39010
L43009 38617
L43140 39010
" />
<path d="M43234 38617
L43478 38617
L43346 38767
L43403 38767
L43440 38785
L43459 38804
L43478 38842
L43478 38935
L43459 38973
L43440 38992
L43403 39010
L43290 39010
L43253 38992
L43234 38973
" />
<path d="M52510 40818
L52117 40818
L52398 40687
L52117 40556
L52510 40556
" />
<path d="M52117 40200
L52117 40275
L52135 40312
L52154 40331
L52210 40368
L52285 40387
L52435 40387
L52473 40368
L52492 40350
L52510 40312
L52510 40237
L52492 40200
L52473 40181
L52435 40162
L52342 40162
L52304 40181
L52285 40200
L52267 40237
L52267 40312
L52285 40350
L52304 40368
L52342 40387
" />
<path d="M52510 44818
L52117 44818
L52398 44687
L52117 44556
L52510 44556
" />
<path d="M52117 44181
L52117 44368
L52304 44387
L52285 44368
L52267 44331
L52267 44237
L52285 44200
L52304 44181
L52342 44162
L52435 44162
L52473 44181
L52492 44200
L52510 44237
L52510 44331
L52492 44368
L52473 44387
" />
<path d="M52510 42818
L52117 42818
L52398 42687
L52117 42556
L52510 42556
" />
<path d="M52248 42200
L52510 42200
" />
<path d="M52098 42293
L52379 42387
L52379 42143
" />
<path d="M52510 48818
L52117 48818
L52398 48687
L52117 48556
L52510 48556
" />
<path d="M52117 48406
L52117 48162
L52267 48293
L52267 48237
L52285 48200
L52304 48181
L52342 48162
L52435 48162
L52473 48181
L52492 48200
L52510 48237
L52510 48350
L52492 48387
L52473 48406
" />
<path d="M52510 46818
L52117 46818
L52398 46687
L52117 46556
L52510 46556
" />
<path d="M52154 46387
L52135 46368
L52117 46331
L52117 46237
L52135 46200
L52154 46181
L52192 46162
L52229 46162
L52285 46181
L52510 46406
L52510 46162
" />
<path d="M52510 50818
L52117 50818
L52398 50687
L52117 50556
L52510 50556
" />
<path d="M52510 50162
L52510 50387
" />
<path d="M52510 50275
L52117 50275
L52173 50312
L52210 50350
L52229 50387
" />
<path d="M58010 33315
L57617 33315
" />
<path d="M57804 33315
L57804 33090
" />
<path d="M58010 33090
L57617 33090
" />
<path d="M57898 32921
L57898 32734
" />
<path d="M58010 32959
L57617 32828
L58010 32696
" />
<path d="M58010 32378
L58010 32565
L57617 32565
" />
<path d="M58010 32040
L58010 32265
" />
<path d="M58010 32153
L57617 32153
L57673 32190
L57710 32228
L57729 32265
" />
<path d="M57654 31890
L57635 31871
L57617 31834
L57617 31740
L57635 31703
L57654 31684
L57692 31665
L57729 31665
L57785 31684
L58010 31909
L58010 31665
" />
<path d="M36510 49815
L36117 49815
" />
<path d="M36304 49815
L36304 49590
" />
<path d="M36510 49590
L36117 49590
" />
<path d="M36398 49421
L36398 49234
" />
<path d="M36510 49459
L36117 49328
L36510 49196
" />
<path d="M36510 48878
L36510 49065
L36117 49065
" />
<path d="M36510 48540
L36510 48765
" />
<path d="M36510 48653
L36117 48653
L36173 48690
L36210 48728
L36229 48765
" />
<path d="M36510 48165
L36510 48390
" />
<path d="M36510 48278
L36117 48278
L36173 48315
L36210 48353
L36229 48390
" />
<path d="M58010 41315
L57617 41315
" />
<path d="M57804 41315
L57804 41090
" />
<path d="M58010 41090
L57617 41090
" />
<path d="M57898 40921
L57898 40734
" />
<path d="M58010 40959
L57617 40828
L58010 40696
" />
<path d="M58010 40378
L58010 40565
L57617 40565
" />
<path d="M58010 40040
L58010 40265
" />
<path d="M58010 40153
L57617 40153
L57673 40190
L57710 40228
L57729 40265
" />
<path d="M57617 39796
L57617 39759
L57635 39721
L57654 39703
L57692 39684
L57767 39665
L57860 39665
L57935 39684
L57973 39703
L57992 39721
L58010 39759
L58010 39796
L57992 39834
L57973 39853
L57935 39871
L57860 39890
L57767 39890
L57692 39871
L57654 39853
L57635 39834
L57617 39796
" />
<path d="M58010 37128
L57617 37128
" />
<path d="M57804 37128
L57804 36903
" />
<path d="M58010 36903
L57617 36903
" />
<path d="M57898 36734
L57898 36546
" />
<path d="M58010 36771
L57617 36640
L58010 36509
" />
<path d="M58010 36190
L58010 36378
L57617 36378
" />
<path d="M58010 36040
L58010 35965
L57992 35928
L57973 35909
L57917 35871
L57842 35853
L57692 35853
L57654 35871
L57635 35890
L57617 35928
L57617 36003
L57635 36040
L57654 36059
L57692 36078
L57785 36078
L57823 36059
L57842 36040
L57860 36003
L57860 35928
L57842 35890
L57823 35871
L57785 35853
" />
<path d="M58010 52628
L57617 52628
" />
<path d="M57804 52628
L57804 52403
" />
<path d="M58010 52403
L57617 52403
" />
<path d="M57898 52234
L57898 52046
" />
<path d="M58010 52271
L57617 52140
L58010 52009
" />
<path d="M58010 51690
L58010 51878
L57617 51878
" />
<path d="M57785 51503
L57767 51540
L57748 51559
L57710 51578
L57692 51578
L57654 51559
L57635 51540
L57617 51503
L57617 51428
L57635 51390
L57654 51371
L57692 51353
L57710 51353
L57748 51371
L57767 51390
L57785 51428
L57785 51503
L57804 51540
L57823 51559
L57860 51578
L57935 51578
L57973 51559
L57992 51540
L58010 51503
L58010 51428
L57992 51390
L57973 51371
L57935 51353
L57860 51353
L57823 51371
L57804 51390
L57785 51428
" />
<path d="M58010 49128
L57617 49128
" />
<path d="M57804 49128
L57804 48903
" />
<path d="M58010 48903
L57617 48903
" />
<path d="M57898 48734
L57898 48546
" />
<path d="M58010 48771
L57617 48640
L58010 48509
" />
<path d="M58010 48190
L58010 48378
L57617 48378
" />
<path d="M57617 48096
L57617 47834
L58010 48003
" />
<path d="M36510 37128
L36117 37128
" />
<path d="M36304 37128
L36304 36903
" />
<path d="M36510 36903
L36117 36903
" />
<path d="M36398 36734
L36398 36546
" />
<path d="M36510 36771
L36117 36640
L36510 36509
" />
<path d="M36510 36190
L36510 36378
L36117 36378
" />
<path d="M36117 35890
L36117 35965
L36135 36003
L36154 36021
L36210 36059
L36285 36078
L36435 36078
L36473 36059
L36492 36040
L36510 36003
L36510 35928
L36492 35890
L36473 35871
L36435 35853
L36342 35853
L36304 35871
L36285 35890
L36267 35928
L36267 36003
L36285 36040
L36304 36059
L36342 36078
" />
<path d="M36510 45128
L36117 45128
" />
<path d="M36304 45128
L36304 44903
" />
<path d="M36510 44903
L36117 44903
" />
<path d="M36398 44734
L36398 44546
" />
<path d="M36510 44771
L36117 44640
L36510 44509
" />
<path d="M36510 44190
L36510 44378
L36117 44378
" />
<path d="M36117 43871
L36117 44059
L36304 44078
L36285 44059
L36267 44021
L36267 43928
L36285 43890
L36304 43871
L36342 43853
L36435 43853
L36473 43871
L36492 43890
L36510 43928
L36510 44021
L36492 44059
L36473 44078
" />
<path d="M36510 54128
L36117 54128
" />
<path d="M36304 54128
L36304 53903
" />
<path d="M36510 53903
L36117 53903
" />
<path d="M36398 53734
L36398 53546
" />
<path d="M36510 53771
L36117 53640
L36510 53509
" />
<path d="M36510 53190
L36510 53378
L36117 53378
" />
<path d="M36248 52890
L36510 52890
" />
<path d="M36098 52984
L36379 53078
L36379 52834
" />
<path d="M36510 41128
L36117 41128
" />
<path d="M36304 41128
L36304 40903
" />
<path d="M36510 40903
L36117 40903
" />
<path d="M36398 40734
L36398 40546
" />
<path d="M36510 40771
L36117 40640
L36510 40509
" />
<path d="M36510 40190
L36510 40378
L36117 40378
" />
<path d="M36117 40096
L36117 39853
L36267 39984
L36267 39928
L36285 39890
L36304 39871
L36342 39853
L36435 39853
L36473 39871
L36492 39890
L36510 39928
L36510 40040
L36492 40078
L36473 40096
" />
<path d="M36510 33128
L36117 33128
" />
<path d="M36304 33128
L36304 32903
" />
<path d="M36510 32903
L36117 32903
" />
<path d="M36398 32734
L36398 32546
" />
<path d="M36510 32771
L36117 32640
L36510 32509
" />
<path d="M36510 32190
L36510 32378
L36117 32378
" />
<path d="M36154 32078
L36135 32059
L36117 32021
L36117 31928
L36135 31890
L36154 31871
L36192 31853
L36229 31853
L36285 31871
L36510 32096
L36510 31853
" />
<path d="M58010 45128
L57617 45128
" />
<path d="M57804 45128
L57804 44903
" />
<path d="M58010 44903
L57617 44903
" />
<path d="M57898 44734
L57898 44546
" />
<path d="M58010 44771
L57617 44640
L58010 44509
" />
<path d="M58010 44190
L58010 44378
L57617 44378
" />
<path d="M58010 43853
L58010 44078
" />
<path d="M58010 43965
L57617 43965
L57673 44003
L57710 44040
L57729 44078
" />
<path d="M32168 13229
L32186 13248
L32205 13304
L32205 13341
L32186 13398
L32149 13435
L32111 13454
L32036 13473
L31980 13473
L31905 13454
L31868 13435
L31830 13398
L31811 13341
L31811 13304
L31830 13248
L31849 13229
" />
<path d="M32205 12854
L32205 13079
" />
<path d="M32205 12967
L31811 12967
L31868 13004
L31905 13041
L31924 13079
" />
<path d="M31980 12629
L31961 12667
L31943 12685
L31905 12704
L31886 12704
L31849 12685
L31830 12667
L31811 12629
L31811 12554
L31830 12517
L31849 12498
L31886 12479
L31905 12479
L31943 12498
L31961 12517
L31980 12554
L31980 12629
L31999 12667
L32018 12685
L32055 12704
L32130 12704
L32168 12685
L32186 12667
L32205 12629
L32205 12554
L32186 12517
L32168 12498
L32130 12479
L32055 12479
L32018 12498
L31999 12517
L31980 12554
" />
<path d="M28668 13229
L28686 13248
L28705 13304
L28705 13341
L28686 13398
L28649 13435
L28611 13454
L28536 13473
L28480 13473
L28405 13454
L28368 13435
L28330 13398
L28311 13341
L28311 13304
L28330 13248
L28349 13229
" />
<path d="M28705 12854
L28705 13079
" />
<path d="M28705 12967
L28311 12967
L28368 13004
L28405 13041
L28424 13079
" />
<path d="M28311 12723
L28311 12460
L28705 12629
" />
<path d="M63168 22729
L63186 22748
L63205 22804
L63205 22841
L63186 22898
L63149 22935
L63111 22954
L63036 22973
L62980 22973
L62905 22954
L62868 22935
L62830 22898
L62811 22841
L62811 22804
L62830 22748
L62849 22729
" />
<path d="M63205 22354
L63205 22579
" />
<path d="M63205 22467
L62811 22467
L62868 22504
L62905 22541
L62924 22579
" />
<path d="M62811 22017
L62811 22092
L62830 22129
L62849 22148
L62905 22185
L62980 22204
L63130 22204
L63168 22185
L63186 22167
L63205 22129
L63205 22054
L63186 22017
L63168 21998
L63130 21979
L63036 21979
L62999 21998
L62980 22017
L62961 22054
L62961 22129
L62980 22167
L62999 22185
L63036 22204
" />
<path d="M66668 22729
L66686 22748
L66705 22804
L66705 22841
L66686 22898
L66649 22935
L66611 22954
L66536 22973
L66480 22973
L66405 22954
L66368 22935
L66330 22898
L66311 22841
L66311 22804
L66330 22748
L66349 22729
" />
<path d="M66705 22354
L66705 22579
" />
<path d="M66705 22467
L66311 22467
L66368 22504
L66405 22541
L66424 22579
" />
<path d="M66311 21998
L66311 22185
L66499 22204
L66480 22185
L66461 22148
L66461 22054
L66480 22017
L66499 21998
L66536 21979
L66630 21979
L66668 21998
L66686 22017
L66705 22054
L66705 22148
L66686 22185
L66668 22204
" />
<path d="M59668 22729
L59686 22748
L59705 22804
L59705 22841
L59686 22898
L59649 22935
L59611 22954
L59536 22973
L59480 22973
L59405 22954
L59368 22935
L59330 22898
L59311 22841
L59311 22804
L59330 22748
L59349 22729
" />
<path d="M59705 22354
L59705 22579
" />
<path d="M59705 22467
L59311 22467
L59368 22504
L59405 22541
L59424 22579
" />
<path d="M59443 22017
L59705 22017
" />
<path d="M59293 22110
L59574 22204
L59574 21960
" />
<path d="M73113 13276
L73131 13295
L73150 13351
L73150 13389
L73131 13445
L73094 13482
L73056 13501
L72981 13520
L72925 13520
L72850 13501
L72813 13482
L72775 13445
L72756 13389
L72756 13351
L72775 13295
L72794 13276
" />
<path d="M73150 12901
L73150 13126
" />
<path d="M73150 13014
L72756 13014
L72813 13051
L72850 13089
L72869 13126
" />
<path d="M72756 12770
L72756 12526
L72906 12658
L72906 12601
L72925 12564
L72944 12545
L72981 12526
L73075 12526
L73113 12545
L73131 12564
L73150 12601
L73150 12714
L73131 12751
L73113 12770
" />
<path d="M70113 13276
L70131 13295
L70150 13351
L70150 13389
L70131 13445
L70094 13482
L70056 13501
L69981 13520
L69925 13520
L69850 13501
L69813 13482
L69775 13445
L69756 13389
L69756 13351
L69775 13295
L69794 13276
" />
<path d="M70150 12901
L70150 13126
" />
<path d="M70150 13014
L69756 13014
L69813 13051
L69850 13089
L69869 13126
" />
<path d="M69794 12751
L69775 12733
L69756 12695
L69756 12601
L69775 12564
L69794 12545
L69831 12526
L69869 12526
L69925 12545
L70150 12770
L70150 12526
" />
<path d="M67113 13276
L67131 13295
L67150 13351
L67150 13389
L67131 13445
L67094 13482
L67056 13501
L66981 13520
L66925 13520
L66850 13501
L66813 13482
L66775 13445
L66756 13389
L66756 13351
L66775 13295
L66794 13276
" />
<path d="M67150 12901
L67150 13126
" />
<path d="M67150 13014
L66756 13014
L66813 13051
L66850 13089
L66869 13126
" />
<path d="M67150 12526
L67150 12751
" />
<path d="M67150 12639
L66756 12639
L66813 12676
L66850 12714
L66869 12751
" />
<path d="M42668 22729
L42686 22748
L42705 22804
L42705 22841
L42686 22898
L42649 22935
L42611 22954
L42536 22973
L42480 22973
L42405 22954
L42368 22935
L42330 22898
L42311 22841
L42311 22804
L42330 22748
L42349 22729
" />
<path d="M42705 22354
L42705 22579
" />
<path d="M42705 22467
L42311 22467
L42368 22504
L42405 22541
L42424 22579
" />
<path d="M42311 22110
L42311 22073
L42330 22035
L42349 22017
L42386 21998
L42461 21979
L42555 21979
L42630 21998
L42668 22017
L42686 22035
L42705 22073
L42705 22110
L42686 22148
L42668 22167
L42630 22185
L42555 22204
L42461 22204
L42386 22185
L42349 22167
L42330 22148
L42311 22110
" />
<path d="M25168 13041
L25186 13060
L25205 13116
L25205 13154
L25186 13210
L25149 13248
L25111 13266
L25036 13285
L24980 13285
L24905 13266
L24868 13248
L24830 13210
L24811 13154
L24811 13116
L24830 13060
L24849 13041
" />
<path d="M25205 12854
L25205 12779
L25186 12742
L25168 12723
L25111 12685
L25036 12667
L24886 12667
L24849 12685
L24830 12704
L24811 12742
L24811 12817
L24830 12854
L24849 12873
L24886 12892
L24980 12892
L25018 12873
L25036 12854
L25055 12817
L25055 12742
L25036 12704
L25018 12685
L24980 12667
" />
<path d="M39168 22541
L39186 22560
L39205 22616
L39205 22654
L39186 22710
L39149 22748
L39111 22766
L39036 22785
L38980 22785
L38905 22766
L38868 22748
L38830 22710
L38811 22654
L38811 22616
L38830 22560
L38849 22541
" />
<path d="M38980 22317
L38961 22354
L38943 22373
L38905 22392
L38886 22392
L38849 22373
L38830 22354
L38811 22317
L38811 22242
L38830 22204
L38849 22185
L38886 22167
L38905 22167
L38943 22185
L38961 22204
L38980 22242
L38980 22317
L38999 22354
L39018 22373
L39055 22392
L39130 22392
L39168 22373
L39186 22354
L39205 22317
L39205 22242
L39186 22204
L39168 22185
L39130 22167
L39055 22167
L39018 22185
L38999 22204
L38980 22242
" />
<path d="M35668 22541
L35686 22560
L35705 22616
L35705 22654
L35686 22710
L35649 22748
L35611 22766
L35536 22785
L35480 22785
L35405 22766
L35368 22748
L35330 22710
L35311 22654
L35311 22616
L35330 22560
L35349 22541
" />
<path d="M35311 22410
L35311 22148
L35705 22317
" />
<path d="M53410 36613
L53392 36631
L53335 36650
L53298 36650
L53242 36631
L53204 36594
L53185 36556
L53167 36481
L53167 36425
L53185 36350
L53204 36313
L53242 36275
L53298 36256
L53335 36256
L53392 36275
L53410 36294
" />
<path d="M53748 36256
L53673 36256
L53635 36275
L53616 36294
L53579 36350
L53560 36425
L53560 36575
L53579 36613
L53598 36631
L53635 36650
L53710 36650
L53748 36631
L53766 36613
L53785 36575
L53785 36481
L53766 36444
L53748 36425
L53710 36406
L53635 36406
L53598 36425
L53579 36444
L53560 36481
" />
<path d="M53910 53113
L53892 53131
L53835 53150
L53798 53150
L53742 53131
L53704 53094
L53685 53056
L53667 52981
L53667 52925
L53685 52850
L53704 52813
L53742 52775
L53798 52756
L53835 52756
L53892 52775
L53910 52794
" />
<path d="M54285 53150
L54060 53150
" />
<path d="M54173 53150
L54173 52756
L54135 52813
L54098 52850
L54060 52869
" />
<path d="M51222 24981
L51222 24587
L51315 24587
L51372 24606
L51409 24643
L51428 24681
L51447 24756
L51447 24812
L51428 24887
L51409 24925
L51372 24962
L51315 24981
L51222 24981
" />
<path d="M51597 24962
L51653 24981
L51747 24981
L51784 24962
L51803 24943
L51822 24906
L51822 24868
L51803 24831
L51784 24812
L51747 24793
L51672 24775
L51634 24756
L51615 24737
L51597 24700
L51597 24662
L51615 24625
L51634 24606
L51672 24587
L51765 24587
L51822 24606
" />
<path d="M51990 24981
L51990 24587
L52215 24981
L52215 24587
" />
<path d="M52403 24831
L52703 24831
" />
<path d="M53096 24981
L52871 24981
" />
<path d="M52984 24981
L52984 24587
L52946 24643
L52909 24681
L52871 24700
" />
<path d="M53453 24587
L53265 24587
L53246 24775
L53265 24756
L53303 24737
L53396 24737
L53434 24756
L53453 24775
L53471 24812
L53471 24906
L53453 24943
L53434 24962
L53396 24981
L53303 24981
L53265 24962
L53246 24943
" />
<path d="M53715 24587
L53753 24587
L53790 24606
L53809 24625
L53828 24662
L53846 24737
L53846 24831
L53828 24906
L53809 24943
L53790 24962
L53753 24981
L53715 24981
L53678 24962
L53659 24943
L53640 24906
L53621 24831
L53621 24737
L53640 24662
L53659 24625
L53678 24606
L53715 24587
" />
<path d="M54184 24718
L54184 24981
" />
<path d="M54090 24568
L53996 24850
L54240 24850
" />
<path d="M54390 24831
L54690 24831
" />
<path d="M54840 24587
L55084 24587
L54952 24737
L55009 24737
L55046 24756
L55065 24775
L55084 24812
L55084 24906
L55065 24943
L55046 24962
L55009 24981
L54896 24981
L54859 24962
L54840 24943
" />
<path d="M55234 24868
L55421 24868
" />
<path d="M55196 24981
L55327 24587
L55459 24981
" />
<path d="M55796 24981
L55571 24981
" />
<path d="M55684 24981
L55684 24587
L55646 24643
L55609 24681
L55571 24700
" />
<path d="M21184 20110
L21484 20110
" />
<path d="M21334 20260
L21334 19960
" />
<path d="M21803 20054
L21859 20073
L21878 20092
L21896 20129
L21896 20185
L21878 20223
L21859 20242
L21821 20260
L21671 20260
L21671 19867
L21803 19867
L21840 19885
L21859 19904
L21878 19942
L21878 19979
L21859 20017
L21840 20035
L21803 20054
L21671 20054
" />
<path d="M22046 20148
L22234 20148
" />
<path d="M22009 20260
L22140 19867
L22271 20260
" />
<path d="M22346 19867
L22571 19867
" />
<path d="M22459 20260
L22459 19867
" />
<path d="M22646 19867
L22871 19867
" />
<path d="M22759 20260
L22759 19867
" />
<path d="M21184 23110
L21484 23110
" />
<path d="M21803 23054
L21859 23073
L21878 23092
L21896 23129
L21896 23185
L21878 23223
L21859 23242
L21821 23260
L21671 23260
L21671 22867
L21803 22867
L21840 22885
L21859 22904
L21878 22942
L21878 22979
L21859 23017
L21840 23035
L21803 23054
L21671 23054
" />
<path d="M22046 23148
L22234 23148
" />
<path d="M22009 23260
L22140 22867
L22271 23260
" />
<path d="M22346 22867
L22571 22867
" />
<path d="M22459 23260
L22459 22867
" />
<path d="M22646 22867
L22871 22867
" />
<path d="M22759 23260
L22759 22867
" />
</g> 
</svg>
