<?xml version="1.0" standalone="no"?>
 <!DOCTYPE svg PUBLIC "-//W3C//DTD SVG 1.1//EN" 
 "http://www.w3.org/Graphics/SVG/1.1/DTD/svg11.dtd"> 
<svg xmlns="http://www.w3.org/2000/svg" version="1.1" 
    width="29.7002cm" height="21.0007cm" viewBox="0 0 116930 82680 ">
<title>SVG Picture created as rhex-demo-F.SilkS.svg date 2018/11/30 16:36:36 </title>
  <desc>Picture generated by PCBNEW </desc>
<g style="fill:#000000; fill-opacity:1;stroke:#000000; stroke-opacity:1;
stroke-linecap:round; stroke-linejoin:round; "
 transform="translate(0 0) scale(1 1)">
</g>
<g style="fill:#000000; fill-opacity:0.0; 
stroke:#000000; stroke-width:-0.000393701; stroke-opacity:1; 
stroke-linecap:round; stroke-linejoin:round;">
</g>
<g style="fill:#000000; fill-opacity:0.0; 
stroke:#000000; stroke-width:59.0551; stroke-opacity:1; 
stroke-linecap:round; stroke-linejoin:round;">
<path d="M36000 9000
L36000 17000
" />
<path d="M36000 17000
L63000 17000
" />
<path d="M63000 17000
L63000 9000
" />
<path d="M63000 9000
L36000 9000
" />
</g>
<g style="fill:#000000; fill-opacity:0.0; 
stroke:#000000; stroke-width:47.2441; stroke-opacity:1; 
stroke-linecap:round; stroke-linejoin:round;">
<path d="M72523 48476
L71476 48476
" />
<path d="M72523 53500
L72523 48476
" />
<path d="M71476 53500
L71476 48476
" />
<path d="M72523 53500
L71476 53500
" />
<path d="M72523 54000
L72523 54523
" />
<path d="M72523 54523
L72000 54523
" />
<path d="M68476 23523
L69523 23523
" />
<path d="M68476 22500
L68476 23523
" />
<path d="M69523 22500
L69523 23523
" />
<path d="M68476 22500
L69523 22500
" />
<path d="M68476 22000
L68476 21476
" />
<path d="M68476 21476
L69000 21476
" />
<path d="M68232 53338
L66767 53338
" />
<path d="M68232 52661
L66767 52661
" />
<path d="M69161 55732
L69161 54267
" />
<path d="M69838 55732
L69838 54267
" />
<path d="M63562 56799
L64437 56799
" />
<path d="M63562 56799
L63562 56773
" />
<path d="M64437 56799
L64437 56773
" />
<path d="M63562 56799
L63778 56799
" />
<path d="M64221 56799
L64437 56799
" />
<path d="M63562 56500
L63562 56200
" />
<path d="M63562 56200
L64000 56200
" />
<path d="M42562 49799
L43437 49799
" />
<path d="M42562 49799
L42562 49773
" />
<path d="M43437 49799
L43437 49773
" />
<path d="M42562 49799
L42778 49799
" />
<path d="M43221 49799
L43437 49799
" />
<path d="M42562 49500
L42562 49200
" />
<path d="M42562 49200
L43000 49200
" />
<path d="M62562 38799
L63437 38799
" />
<path d="M62562 38799
L62562 38773
" />
<path d="M63437 38799
L63437 38773
" />
<path d="M62562 38799
L62778 38799
" />
<path d="M63221 38799
L63437 38799
" />
<path d="M62562 38500
L62562 38200
" />
<path d="M62562 38200
L63000 38200
" />
<path d="M62562 40799
L63437 40799
" />
<path d="M62562 40799
L62562 40773
" />
<path d="M63437 40799
L63437 40773
" />
<path d="M62562 40799
L62778 40799
" />
<path d="M63221 40799
L63437 40799
" />
<path d="M62562 40500
L62562 40200
" />
<path d="M62562 40200
L63000 40200
" />
<path d="M62562 41799
L63437 41799
" />
<path d="M62562 41799
L62562 41773
" />
<path d="M63437 41799
L63437 41773
" />
<path d="M62562 41799
L62778 41799
" />
<path d="M63221 41799
L63437 41799
" />
<path d="M62562 41500
L62562 41200
" />
<path d="M62562 41200
L63000 41200
" />
<path d="M43437 55200
L42562 55200
" />
<path d="M43437 55200
L43437 55226
" />
<path d="M42562 55200
L42562 55226
" />
<path d="M43437 55200
L43221 55200
" />
<path d="M42778 55200
L42562 55200
" />
<path d="M43437 55500
L43437 55799
" />
<path d="M43437 55799
L43000 55799
" />
<path d="M44437 55200
L43562 55200
" />
<path d="M44437 55200
L44437 55226
" />
<path d="M43562 55200
L43562 55226
" />
<path d="M44437 55200
L44221 55200
" />
<path d="M43778 55200
L43562 55200
" />
<path d="M44437 55500
L44437 55799
" />
<path d="M44437 55799
L44000 55799
" />
<path d="M44437 54200
L43562 54200
" />
<path d="M44437 54200
L44437 54226
" />
<path d="M43562 54200
L43562 54226
" />
<path d="M44437 54200
L44221 54200
" />
<path d="M43778 54200
L43562 54200
" />
<path d="M44437 54500
L44437 54799
" />
<path d="M44437 54799
L44000 54799
" />
<path d="M62562 48799
L63437 48799
" />
<path d="M62562 48799
L62562 48773
" />
<path d="M63437 48799
L63437 48773
" />
<path d="M62562 48799
L62778 48799
" />
<path d="M63221 48799
L63437 48799
" />
<path d="M62562 48500
L62562 48200
" />
<path d="M62562 48200
L63000 48200
" />
<path d="M63562 49799
L64437 49799
" />
<path d="M63562 49799
L63562 49773
" />
<path d="M64437 49799
L64437 49773
" />
<path d="M63562 49799
L63778 49799
" />
<path d="M64221 49799
L64437 49799
" />
<path d="M63562 49500
L63562 49200
" />
<path d="M63562 49200
L64000 49200
" />
<path d="M62562 56799
L63437 56799
" />
<path d="M62562 56799
L62562 56773
" />
<path d="M63437 56799
L63437 56773
" />
<path d="M62562 56799
L62778 56799
" />
<path d="M63221 56799
L63437 56799
" />
<path d="M62562 56500
L62562 56200
" />
<path d="M62562 56200
L63000 56200
" />
<path d="M42562 37799
L43437 37799
" />
<path d="M42562 37799
L42562 37773
" />
<path d="M43437 37799
L43437 37773
" />
<path d="M42562 37799
L42778 37799
" />
<path d="M43221 37799
L43437 37799
" />
<path d="M42562 37500
L42562 37200
" />
<path d="M42562 37200
L43000 37200
" />
<path d="M43562 37799
L44437 37799
" />
<path d="M43562 37799
L43562 37773
" />
<path d="M44437 37799
L44437 37773
" />
<path d="M43562 37799
L43778 37799
" />
<path d="M44221 37799
L44437 37799
" />
<path d="M43562 37500
L43562 37200
" />
<path d="M43562 37200
L44000 37200
" />
<path d="M42562 36799
L43437 36799
" />
<path d="M42562 36799
L42562 36773
" />
<path d="M43437 36799
L43437 36773
" />
<path d="M42562 36799
L42778 36799
" />
<path d="M43221 36799
L43437 36799
" />
<path d="M42562 36500
L42562 36200
" />
<path d="M42562 36200
L43000 36200
" />
<path d="M42562 51799
L43437 51799
" />
<path d="M42562 51799
L42562 51773
" />
<path d="M43437 51799
L43437 51773
" />
<path d="M42562 51799
L42778 51799
" />
<path d="M43221 51799
L43437 51799
" />
<path d="M42562 51500
L42562 51200
" />
<path d="M42562 51200
L43000 51200
" />
<path d="M63562 42799
L64437 42799
" />
<path d="M63562 42799
L63562 42773
" />
<path d="M64437 42799
L64437 42773
" />
<path d="M63562 42799
L63778 42799
" />
<path d="M64221 42799
L64437 42799
" />
<path d="M63562 42500
L63562 42200
" />
<path d="M63562 42200
L64000 42200
" />
<path d="M44437 43200
L43562 43200
" />
<path d="M44437 43200
L44437 43226
" />
<path d="M43562 43200
L43562 43226
" />
<path d="M44437 43200
L44221 43200
" />
<path d="M43778 43200
L43562 43200
" />
<path d="M44437 43500
L44437 43799
" />
<path d="M44437 43799
L44000 43799
" />
<path d="M43437 41200
L42562 41200
" />
<path d="M43437 41200
L43437 41226
" />
<path d="M42562 41200
L42562 41226
" />
<path d="M43437 41200
L43221 41200
" />
<path d="M42778 41200
L42562 41200
" />
<path d="M43437 41500
L43437 41799
" />
<path d="M43437 41799
L43000 41799
" />
<path d="M44437 41200
L43562 41200
" />
<path d="M44437 41200
L44437 41226
" />
<path d="M43562 41200
L43562 41226
" />
<path d="M44437 41200
L44221 41200
" />
<path d="M43778 41200
L43562 41200
" />
<path d="M44437 41500
L44437 41799
" />
<path d="M44437 41799
L44000 41799
" />
<path d="M42562 39799
L43437 39799
" />
<path d="M42562 39799
L42562 39773
" />
<path d="M43437 39799
L43437 39773
" />
<path d="M42562 39799
L42778 39799
" />
<path d="M43221 39799
L43437 39799
" />
<path d="M42562 39500
L42562 39200
" />
<path d="M42562 39200
L43000 39200
" />
<path d="M54273 40937
L54273 40621
" />
<path d="M54273 40378
L54273 40062
" />
<path d="M53299 40937
L54273 40937
" />
<path d="M53299 40062
L54273 40062
" />
<path d="M53299 40937
L53299 40721
" />
<path d="M53299 40278
L53299 40062
" />
<path d="M53000 40937
L52700 40937
" />
<path d="M52700 40937
L52700 40500
" />
<path d="M54273 44937
L54273 44621
" />
<path d="M54273 44378
L54273 44062
" />
<path d="M53299 44937
L54273 44937
" />
<path d="M53299 44062
L54273 44062
" />
<path d="M53299 44937
L53299 44721
" />
<path d="M53299 44278
L53299 44062
" />
<path d="M53000 44937
L52700 44937
" />
<path d="M52700 44937
L52700 44500
" />
<path d="M54273 42937
L54273 42621
" />
<path d="M54273 42378
L54273 42062
" />
<path d="M53299 42937
L54273 42937
" />
<path d="M53299 42062
L54273 42062
" />
<path d="M53299 42937
L53299 42721
" />
<path d="M53299 42278
L53299 42062
" />
<path d="M53000 42937
L52700 42937
" />
<path d="M52700 42937
L52700 42500
" />
<path d="M54273 48937
L54273 48621
" />
<path d="M54273 48378
L54273 48062
" />
<path d="M53299 48937
L54273 48937
" />
<path d="M53299 48062
L54273 48062
" />
<path d="M53299 48937
L53299 48721
" />
<path d="M53299 48278
L53299 48062
" />
<path d="M53000 48937
L52700 48937
" />
<path d="M52700 48937
L52700 48500
" />
<path d="M54273 46937
L54273 46621
" />
<path d="M54273 46378
L54273 46062
" />
<path d="M53299 46937
L54273 46937
" />
<path d="M53299 46062
L54273 46062
" />
<path d="M53299 46937
L53299 46721
" />
<path d="M53299 46278
L53299 46062
" />
<path d="M53000 46937
L52700 46937
" />
<path d="M52700 46937
L52700 46500
" />
<path d="M54273 50937
L54273 50621
" />
<path d="M54273 50378
L54273 50062
" />
<path d="M53299 50937
L54273 50937
" />
<path d="M53299 50062
L54273 50062
" />
<path d="M53299 50937
L53299 50721
" />
<path d="M53299 50278
L53299 50062
" />
<path d="M53000 50937
L52700 50937
" />
<path d="M52700 50937
L52700 50500
" />
<path d="M59773 32937
L59773 32621
" />
<path d="M59773 32378
L59773 32062
" />
<path d="M58799 32937
L59773 32937
" />
<path d="M58799 32062
L59773 32062
" />
<path d="M58799 32937
L58799 32721
" />
<path d="M58799 32278
L58799 32062
" />
<path d="M58500 32937
L58200 32937
" />
<path d="M58200 32937
L58200 32500
" />
<path d="M38273 49437
L38273 49121
" />
<path d="M38273 48878
L38273 48562
" />
<path d="M37299 49437
L38273 49437
" />
<path d="M37299 48562
L38273 48562
" />
<path d="M37299 49437
L37299 49221
" />
<path d="M37299 48778
L37299 48562
" />
<path d="M37000 49437
L36700 49437
" />
<path d="M36700 49437
L36700 49000
" />
<path d="M59773 40937
L59773 40621
" />
<path d="M59773 40378
L59773 40062
" />
<path d="M58799 40937
L59773 40937
" />
<path d="M58799 40062
L59773 40062
" />
<path d="M58799 40937
L58799 40721
" />
<path d="M58799 40278
L58799 40062
" />
<path d="M58500 40937
L58200 40937
" />
<path d="M58200 40937
L58200 40500
" />
<path d="M59773 36937
L59773 36621
" />
<path d="M59773 36378
L59773 36062
" />
<path d="M58799 36937
L59773 36937
" />
<path d="M58799 36062
L59773 36062
" />
<path d="M58799 36937
L58799 36721
" />
<path d="M58799 36278
L58799 36062
" />
<path d="M58500 36937
L58200 36937
" />
<path d="M58200 36937
L58200 36500
" />
<path d="M59773 52437
L59773 52121
" />
<path d="M59773 51878
L59773 51562
" />
<path d="M58799 52437
L59773 52437
" />
<path d="M58799 51562
L59773 51562
" />
<path d="M58799 52437
L58799 52221
" />
<path d="M58799 51778
L58799 51562
" />
<path d="M58500 52437
L58200 52437
" />
<path d="M58200 52437
L58200 52000
" />
<path d="M59773 48937
L59773 48621
" />
<path d="M59773 48378
L59773 48062
" />
<path d="M58799 48937
L59773 48937
" />
<path d="M58799 48062
L59773 48062
" />
<path d="M58799 48937
L58799 48721
" />
<path d="M58799 48278
L58799 48062
" />
<path d="M58500 48937
L58200 48937
" />
<path d="M58200 48937
L58200 48500
" />
<path d="M38273 36937
L38273 36621
" />
<path d="M38273 36378
L38273 36062
" />
<path d="M37299 36937
L38273 36937
" />
<path d="M37299 36062
L38273 36062
" />
<path d="M37299 36937
L37299 36721
" />
<path d="M37299 36278
L37299 36062
" />
<path d="M37000 36937
L36700 36937
" />
<path d="M36700 36937
L36700 36500
" />
<path d="M38273 44937
L38273 44621
" />
<path d="M38273 44378
L38273 44062
" />
<path d="M37299 44937
L38273 44937
" />
<path d="M37299 44062
L38273 44062
" />
<path d="M37299 44937
L37299 44721
" />
<path d="M37299 44278
L37299 44062
" />
<path d="M37000 44937
L36700 44937
" />
<path d="M36700 44937
L36700 44500
" />
<path d="M38273 53937
L38273 53621
" />
<path d="M38273 53378
L38273 53062
" />
<path d="M37299 53937
L38273 53937
" />
<path d="M37299 53062
L38273 53062
" />
<path d="M37299 53937
L37299 53721
" />
<path d="M37299 53278
L37299 53062
" />
<path d="M37000 53937
L36700 53937
" />
<path d="M36700 53937
L36700 53500
" />
<path d="M38273 40937
L38273 40621
" />
<path d="M38273 40378
L38273 40062
" />
<path d="M37299 40937
L38273 40937
" />
<path d="M37299 40062
L38273 40062
" />
<path d="M37299 40937
L37299 40721
" />
<path d="M37299 40278
L37299 40062
" />
<path d="M37000 40937
L36700 40937
" />
<path d="M36700 40937
L36700 40500
" />
<path d="M38273 32937
L38273 32621
" />
<path d="M38273 32378
L38273 32062
" />
<path d="M37299 32937
L38273 32937
" />
<path d="M37299 32062
L38273 32062
" />
<path d="M37299 32937
L37299 32721
" />
<path d="M37299 32278
L37299 32062
" />
<path d="M37000 32937
L36700 32937
" />
<path d="M36700 32937
L36700 32500
" />
<path d="M59773 44937
L59773 44621
" />
<path d="M59773 44378
L59773 44062
" />
<path d="M58799 44937
L59773 44937
" />
<path d="M58799 44062
L59773 44062
" />
<path d="M58799 44937
L58799 44721
" />
<path d="M58799 44278
L58799 44062
" />
<path d="M58500 44937
L58200 44937
" />
<path d="M58200 44937
L58200 44500
" />
<path d="M31633 11948
L30366 11948
" />
<path d="M30366 11948
L30366 14003
" />
<path d="M30366 14003
L31633 14003
" />
<path d="M31633 14003
L31633 11948
" />
<path d="M31000 11885
L31000 11948
" />
<path d="M31000 14066
L31000 14003
" />
<path d="M28133 11948
L26866 11948
" />
<path d="M26866 11948
L26866 14003
" />
<path d="M26866 14003
L28133 14003
" />
<path d="M28133 14003
L28133 11948
" />
<path d="M27500 11885
L27500 11948
" />
<path d="M27500 14066
L27500 14003
" />
<path d="M62633 21448
L61366 21448
" />
<path d="M61366 21448
L61366 23503
" />
<path d="M61366 23503
L62633 23503
" />
<path d="M62633 23503
L62633 21448
" />
<path d="M62000 21385
L62000 21448
" />
<path d="M62000 23566
L62000 23503
" />
<path d="M66133 21448
L64866 21448
" />
<path d="M64866 21448
L64866 23503
" />
<path d="M64866 23503
L66133 23503
" />
<path d="M66133 23503
L66133 21448
" />
<path d="M65500 21385
L65500 21448
" />
<path d="M65500 23566
L65500 23503
" />
<path d="M59133 21448
L57866 21448
" />
<path d="M57866 21448
L57866 23503
" />
<path d="M57866 23503
L59133 23503
" />
<path d="M59133 23503
L59133 21448
" />
<path d="M58500 21385
L58500 21448
" />
<path d="M58500 23566
L58500 23503
" />
<path d="M74633 11948
L73366 11948
" />
<path d="M73366 11948
L73366 14003
" />
<path d="M73366 14003
L74633 14003
" />
<path d="M74633 14003
L74633 11948
" />
<path d="M74000 11885
L74000 11948
" />
<path d="M74000 14066
L74000 14003
" />
<path d="M71633 11948
L70366 11948
" />
<path d="M70366 11948
L70366 14003
" />
<path d="M70366 14003
L71633 14003
" />
<path d="M71633 14003
L71633 11948
" />
<path d="M71000 11885
L71000 11948
" />
<path d="M71000 14066
L71000 14003
" />
<path d="M68633 11948
L67366 11948
" />
<path d="M67366 11948
L67366 14003
" />
<path d="M67366 14003
L68633 14003
" />
<path d="M68633 14003
L68633 11948
" />
<path d="M68000 11885
L68000 11948
" />
<path d="M68000 14066
L68000 14003
" />
<path d="M42133 21448
L40866 21448
" />
<path d="M40866 21448
L40866 23503
" />
<path d="M40866 23503
L42133 23503
" />
<path d="M42133 23503
L42133 21448
" />
<path d="M41500 21385
L41500 21448
" />
<path d="M41500 23566
L41500 23503
" />
<path d="M24633 11948
L23366 11948
" />
<path d="M23366 11948
L23366 14003
" />
<path d="M23366 14003
L24633 14003
" />
<path d="M24633 14003
L24633 11948
" />
<path d="M24000 11885
L24000 11948
" />
<path d="M24000 14066
L24000 14003
" />
<path d="M38633 21448
L37366 21448
" />
<path d="M37366 21448
L37366 23503
" />
<path d="M37366 23503
L38633 23503
" />
<path d="M38633 23503
L38633 21448
" />
<path d="M38000 21385
L38000 21448
" />
<path d="M38000 23566
L38000 23503
" />
<path d="M35133 21448
L33866 21448
" />
<path d="M33866 21448
L33866 23503
" />
<path d="M33866 23503
L35133 23503
" />
<path d="M35133 23503
L35133 21448
" />
<path d="M34500 21385
L34500 21448
" />
<path d="M34500 23566
L34500 23503
" />
<path d="M52448 36866
L52448 38133
" />
<path d="M52448 38133
L54503 38133
" />
<path d="M54503 38133
L54503 36866
" />
<path d="M54503 36866
L52448 36866
" />
<path d="M52385 37500
L52448 37500
" />
<path d="M54566 37500
L54503 37500
" />
<path d="M52948 53366
L52948 54633
" />
<path d="M52948 54633
L55003 54633
" />
<path d="M55003 54633
L55003 53366
" />
<path d="M55003 53366
L52948 53366
" />
<path d="M52885 54000
L52948 54000
" />
<path d="M55066 54000
L55003 54000
" />
</g>
<g style="fill:#000000; fill-opacity:0.0; 
stroke:#000000; stroke-width:59.0551; stroke-opacity:1; 
stroke-linecap:round; stroke-linejoin:round;">
<path d="M54500 26000
L46500 26000
" />
<path d="M46500 26000
L46500 19500
" />
<path d="M46500 19500
L54500 19500
" />
<path d="M54500 19500
L54500 26000
" />
</g>
<g style="fill:#000000; fill-opacity:0.0; 
stroke:#000000; stroke-width:47.2441; stroke-opacity:1; 
stroke-linecap:round; stroke-linejoin:round;">
<path d="M21476 21523
L22523 21523
" />
<path d="M21476 21500
L21476 21523
" />
<path d="M22523 21500
L22523 21523
" />
<path d="M21476 21500
L22523 21500
" />
<path d="M21476 21000
L21476 20476
" />
<path d="M21476 20476
L22000 20476
" />
<path d="M21476 24523
L22523 24523
" />
<path d="M21476 24500
L21476 24523
" />
<path d="M22523 24500
L22523 24523
" />
<path d="M21476 24500
L22523 24500
" />
<path d="M21476 24000
L21476 23476
" />
<path d="M21476 23476
L22000 23476
" />
</g>
<g style="fill:#000000; fill-opacity:0.0; 
stroke:#000000; stroke-width:59.0551; stroke-opacity:1; 
stroke-linecap:round; stroke-linejoin:round;">
<path d="M38618 9678
L38618 9284
L38712 9284
L38768 9303
L38806 9340
L38825 9378
L38843 9453
L38843 9509
L38825 9584
L38806 9621
L38768 9659
L38712 9678
L38618 9678
" />
<path d="M39237 9640
L39218 9659
L39162 9678
L39125 9678
L39068 9659
L39031 9621
L39012 9584
L38993 9509
L38993 9453
L39012 9378
L39031 9340
L39068 9303
L39125 9284
L39162 9284
L39218 9303
L39237 9321
" />
<path d="M39406 9678
L39406 9284
L39500 9284
L39556 9303
L39593 9340
L39612 9378
L39631 9453
L39631 9509
L39612 9584
L39593 9621
L39556 9659
L39500 9678
L39406 9678
" />
<path d="M40024 9640
L40006 9659
L39949 9678
L39912 9678
L39856 9659
L39818 9621
L39799 9584
L39781 9509
L39781 9453
L39799 9378
L39818 9340
L39856 9303
L39912 9284
L39949 9284
L40006 9303
L40024 9321
" />
<path d="M40399 9678
L40174 9678
" />
<path d="M40287 9678
L40287 9284
L40249 9340
L40212 9378
L40174 9396
" />
<path d="M71259 48178
L71259 47784
" />
<path d="M71259 47971
L71484 47971
" />
<path d="M71484 48178
L71484 47784
" />
<path d="M71896 48140
L71878 48159
L71821 48178
L71784 48178
L71728 48159
L71690 48121
L71671 48084
L71653 48009
L71653 47953
L71671 47878
L71690 47840
L71728 47803
L71784 47784
L71821 47784
L71878 47803
L71896 47821
" />
<path d="M72065 48028
L72365 48028
" />
<path d="M72721 47784
L72646 47784
L72609 47803
L72590 47821
L72553 47878
L72534 47953
L72534 48103
L72553 48140
L72571 48159
L72609 48178
L72684 48178
L72721 48159
L72740 48140
L72759 48103
L72759 48009
L72740 47971
L72721 47953
L72684 47934
L72609 47934
L72571 47953
L72553 47971
L72534 48009
" />
<path d="M69368 20784
L69368 21065
L69350 21121
L69312 21159
L69256 21178
L69218 21178
" />
<path d="M69762 21178
L69537 21178
" />
<path d="M69649 21178
L69649 20784
L69612 20840
L69574 20878
L69537 20896
" />
<path d="M67434 53910
L67303 53722
" />
<path d="M67209 53910
L67209 53516
L67359 53516
L67396 53535
L67415 53554
L67434 53591
L67434 53647
L67415 53685
L67396 53704
L67359 53722
L67209 53722
" />
<path d="M67809 53910
L67584 53910
" />
<path d="M67696 53910
L67696 53516
L67659 53572
L67621 53610
L67584 53629
" />
<path d="M68945 55065
L68758 55196
" />
<path d="M68945 55290
L68552 55290
L68552 55140
L68570 55103
L68589 55084
L68627 55065
L68683 55065
L68720 55084
L68739 55103
L68758 55140
L68758 55290
" />
<path d="M68589 54915
L68570 54896
L68552 54859
L68552 54765
L68570 54728
L68589 54709
L68627 54690
L68664 54690
L68720 54709
L68945 54934
L68945 54690
" />
<path d="M65012 56678
L65012 56284
L65162 56284
L65200 56303
L65218 56321
L65237 56359
L65237 56415
L65218 56453
L65200 56471
L65162 56490
L65012 56490
" />
<path d="M65631 56640
L65612 56659
L65556 56678
L65518 56678
L65462 56659
L65425 56621
L65406 56584
L65387 56509
L65387 56453
L65406 56378
L65425 56340
L65462 56303
L65518 56284
L65556 56284
L65612 56303
L65631 56321
" />
<path d="M65762 56284
L66024 56284
L65856 56678
" />
<path d="M43843 49678
L43843 49284
L43993 49284
L44031 49303
L44050 49321
L44068 49359
L44068 49415
L44050 49453
L44031 49471
L43993 49490
L43843 49490
" />
<path d="M44237 49471
L44368 49471
" />
<path d="M44425 49678
L44237 49678
L44237 49284
L44425 49284
" />
<path d="M44799 49678
L44574 49678
" />
<path d="M44687 49678
L44687 49284
L44649 49340
L44612 49378
L44574 49396
" />
<path d="M45156 49284
L44968 49284
L44949 49471
L44968 49453
L45006 49434
L45099 49434
L45137 49453
L45156 49471
L45174 49509
L45174 49603
L45156 49640
L45137 49659
L45099 49678
L45006 49678
L44968 49659
L44949 49640
" />
<path d="M64031 38678
L64031 38284
L64181 38284
L64218 38303
L64237 38321
L64256 38359
L64256 38415
L64237 38453
L64218 38471
L64181 38490
L64031 38490
" />
<path d="M64425 38471
L64556 38471
" />
<path d="M64612 38678
L64425 38678
L64425 38284
L64612 38284
" />
<path d="M64949 38284
L64874 38284
L64837 38303
L64818 38321
L64781 38378
L64762 38453
L64762 38603
L64781 38640
L64799 38659
L64837 38678
L64912 38678
L64949 38659
L64968 38640
L64987 38603
L64987 38509
L64968 38471
L64949 38453
L64912 38434
L64837 38434
L64799 38453
L64781 38471
L64762 38509
" />
<path d="M64031 40678
L64031 40284
L64181 40284
L64218 40303
L64237 40321
L64256 40359
L64256 40415
L64237 40453
L64218 40471
L64181 40490
L64031 40490
" />
<path d="M64425 40471
L64556 40471
" />
<path d="M64612 40678
L64425 40678
L64425 40284
L64612 40284
" />
<path d="M64762 40321
L64781 40303
L64818 40284
L64912 40284
L64949 40303
L64968 40321
L64987 40359
L64987 40396
L64968 40453
L64743 40678
L64987 40678
" />
<path d="M64031 41678
L64031 41284
L64181 41284
L64218 41303
L64237 41321
L64256 41359
L64256 41415
L64237 41453
L64218 41471
L64181 41490
L64031 41490
" />
<path d="M64425 41471
L64556 41471
" />
<path d="M64612 41678
L64425 41678
L64425 41284
L64612 41284
" />
<path d="M64856 41284
L64893 41284
L64931 41303
L64949 41321
L64968 41359
L64987 41434
L64987 41528
L64968 41603
L64949 41640
L64931 41659
L64893 41678
L64856 41678
L64818 41659
L64799 41640
L64781 41603
L64762 41528
L64762 41434
L64781 41359
L64799 41321
L64818 41303
L64856 41284
" />
<path d="M41325 56678
L41325 56284
L41475 56284
L41512 56303
L41531 56321
L41550 56359
L41550 56415
L41531 56453
L41512 56471
L41475 56490
L41325 56490
" />
<path d="M41718 56678
L41718 56284
L41812 56284
L41868 56303
L41906 56340
L41925 56378
L41943 56453
L41943 56509
L41925 56584
L41906 56621
L41868 56659
L41812 56678
L41718 56678
" />
<path d="M42318 56678
L42093 56678
" />
<path d="M42206 56678
L42206 56284
L42168 56340
L42131 56378
L42093 56396
" />
<path d="M42656 56415
L42656 56678
" />
<path d="M42562 56265
L42468 56546
L42712 56546
" />
<path d="M44825 56678
L44825 56284
L44975 56284
L45012 56303
L45031 56321
L45050 56359
L45050 56415
L45031 56453
L45012 56471
L44975 56490
L44825 56490
" />
<path d="M45218 56678
L45218 56284
L45312 56284
L45368 56303
L45406 56340
L45425 56378
L45443 56453
L45443 56509
L45425 56584
L45406 56621
L45368 56659
L45312 56678
L45218 56678
" />
<path d="M45818 56678
L45593 56678
" />
<path d="M45706 56678
L45706 56284
L45668 56340
L45631 56378
L45593 56396
" />
<path d="M45949 56284
L46193 56284
L46062 56434
L46118 56434
L46156 56453
L46174 56471
L46193 56509
L46193 56603
L46174 56640
L46156 56659
L46118 56678
L46006 56678
L45968 56659
L45949 56640
" />
<path d="M41825 54178
L41825 53784
L41975 53784
L42012 53803
L42031 53821
L42050 53859
L42050 53915
L42031 53953
L42012 53971
L41975 53990
L41825 53990
" />
<path d="M42218 54178
L42218 53784
L42312 53784
L42368 53803
L42406 53840
L42425 53878
L42443 53953
L42443 54009
L42425 54084
L42406 54121
L42368 54159
L42312 54178
L42218 54178
" />
<path d="M42818 54178
L42593 54178
" />
<path d="M42706 54178
L42706 53784
L42668 53840
L42631 53878
L42593 53896
" />
<path d="M42968 53821
L42987 53803
L43024 53784
L43118 53784
L43156 53803
L43174 53821
L43193 53859
L43193 53896
L43174 53953
L42949 54178
L43193 54178
" />
<path d="M61512 47678
L61512 47284
L61662 47284
L61700 47303
L61718 47321
L61737 47359
L61737 47415
L61718 47453
L61700 47471
L61662 47490
L61512 47490
" />
<path d="M61906 47678
L61906 47284
L62000 47284
L62056 47303
L62093 47340
L62112 47378
L62131 47453
L62131 47509
L62112 47584
L62093 47621
L62056 47659
L62000 47678
L61906 47678
" />
<path d="M62262 47284
L62506 47284
L62374 47434
L62431 47434
L62468 47453
L62487 47471
L62506 47509
L62506 47603
L62487 47640
L62468 47659
L62431 47678
L62318 47678
L62281 47659
L62262 47640
" />
<path d="M65012 49678
L65012 49284
L65162 49284
L65200 49303
L65218 49321
L65237 49359
L65237 49415
L65218 49453
L65200 49471
L65162 49490
L65012 49490
" />
<path d="M65406 49678
L65406 49284
L65500 49284
L65556 49303
L65593 49340
L65612 49378
L65631 49453
L65631 49509
L65612 49584
L65593 49621
L65556 49659
L65500 49678
L65406 49678
" />
<path d="M65781 49321
L65799 49303
L65837 49284
L65931 49284
L65968 49303
L65987 49321
L66006 49359
L66006 49396
L65987 49453
L65762 49678
L66006 49678
" />
<path d="M61012 56678
L61012 56284
L61162 56284
L61200 56303
L61218 56321
L61237 56359
L61237 56415
L61218 56453
L61200 56471
L61162 56490
L61012 56490
" />
<path d="M61631 56640
L61612 56659
L61556 56678
L61518 56678
L61462 56659
L61425 56621
L61406 56584
L61387 56509
L61387 56453
L61406 56378
L61425 56340
L61462 56303
L61518 56284
L61556 56284
L61612 56303
L61631 56321
" />
<path d="M61968 56284
L61893 56284
L61856 56303
L61837 56321
L61799 56378
L61781 56453
L61781 56603
L61799 56640
L61818 56659
L61856 56678
L61931 56678
L61968 56659
L61987 56640
L62006 56603
L62006 56509
L61987 56471
L61968 56453
L61931 56434
L61856 56434
L61818 56453
L61799 56471
L61781 56509
" />
<path d="M41512 37178
L41512 36784
L41662 36784
L41700 36803
L41718 36821
L41737 36859
L41737 36915
L41718 36953
L41700 36971
L41662 36990
L41512 36990
" />
<path d="M42131 37140
L42112 37159
L42056 37178
L42018 37178
L41962 37159
L41925 37121
L41906 37084
L41887 37009
L41887 36953
L41906 36878
L41925 36840
L41962 36803
L42018 36784
L42056 36784
L42112 36803
L42131 36821
" />
<path d="M42262 36784
L42506 36784
L42374 36934
L42431 36934
L42468 36953
L42487 36971
L42506 37009
L42506 37103
L42487 37140
L42468 37159
L42431 37178
L42318 37178
L42281 37159
L42262 37140
" />
<path d="M45012 37678
L45012 37284
L45162 37284
L45200 37303
L45218 37321
L45237 37359
L45237 37415
L45218 37453
L45200 37471
L45162 37490
L45012 37490
" />
<path d="M45631 37640
L45612 37659
L45556 37678
L45518 37678
L45462 37659
L45425 37621
L45406 37584
L45387 37509
L45387 37453
L45406 37378
L45425 37340
L45462 37303
L45518 37284
L45556 37284
L45612 37303
L45631 37321
" />
<path d="M45781 37321
L45799 37303
L45837 37284
L45931 37284
L45968 37303
L45987 37321
L46006 37359
L46006 37396
L45987 37453
L45762 37678
L46006 37678
" />
<path d="M41512 36178
L41512 35784
L41662 35784
L41700 35803
L41718 35821
L41737 35859
L41737 35915
L41718 35953
L41700 35971
L41662 35990
L41512 35990
" />
<path d="M42131 36140
L42112 36159
L42056 36178
L42018 36178
L41962 36159
L41925 36121
L41906 36084
L41887 36009
L41887 35953
L41906 35878
L41925 35840
L41962 35803
L42018 35784
L42056 35784
L42112 35803
L42131 35821
" />
<path d="M42506 36178
L42281 36178
" />
<path d="M42393 36178
L42393 35784
L42356 35840
L42318 35878
L42281 35896
" />
<path d="M43825 51678
L43825 51284
L43975 51284
L44012 51303
L44031 51321
L44050 51359
L44050 51415
L44031 51453
L44012 51471
L43975 51490
L43825 51490
" />
<path d="M44350 51471
L44406 51490
L44425 51509
L44443 51546
L44443 51603
L44425 51640
L44406 51659
L44368 51678
L44218 51678
L44218 51284
L44350 51284
L44387 51303
L44406 51321
L44425 51359
L44425 51396
L44406 51434
L44387 51453
L44350 51471
L44218 51471
" />
<path d="M44818 51678
L44593 51678
" />
<path d="M44706 51678
L44706 51284
L44668 51340
L44631 51378
L44593 51396
" />
<path d="M44949 51284
L45193 51284
L45062 51434
L45118 51434
L45156 51453
L45174 51471
L45193 51509
L45193 51603
L45174 51640
L45156 51659
L45118 51678
L45006 51678
L44968 51659
L44949 51640
" />
<path d="M65012 42678
L65012 42284
L65162 42284
L65200 42303
L65218 42321
L65237 42359
L65237 42415
L65218 42453
L65200 42471
L65162 42490
L65012 42490
" />
<path d="M65537 42471
L65593 42490
L65612 42509
L65631 42546
L65631 42603
L65612 42640
L65593 42659
L65556 42678
L65406 42678
L65406 42284
L65537 42284
L65574 42303
L65593 42321
L65612 42359
L65612 42396
L65593 42434
L65574 42453
L65537 42471
L65406 42471
" />
<path d="M65818 42678
L65893 42678
L65931 42659
L65949 42640
L65987 42584
L66006 42509
L66006 42359
L65987 42321
L65968 42303
L65931 42284
L65856 42284
L65818 42303
L65799 42321
L65781 42359
L65781 42453
L65799 42490
L65818 42509
L65856 42528
L65931 42528
L65968 42509
L65987 42490
L66006 42453
" />
<path d="M45012 43678
L45012 43284
L45162 43284
L45200 43303
L45218 43321
L45237 43359
L45237 43415
L45218 43453
L45200 43471
L45162 43490
L45012 43490
" />
<path d="M45537 43471
L45593 43490
L45612 43509
L45631 43546
L45631 43603
L45612 43640
L45593 43659
L45556 43678
L45406 43678
L45406 43284
L45537 43284
L45574 43303
L45593 43321
L45612 43359
L45612 43396
L45593 43434
L45574 43453
L45537 43471
L45406 43471
" />
<path d="M45874 43284
L45912 43284
L45949 43303
L45968 43321
L45987 43359
L46006 43434
L46006 43528
L45987 43603
L45968 43640
L45949 43659
L45912 43678
L45874 43678
L45837 43659
L45818 43640
L45799 43603
L45781 43528
L45781 43434
L45799 43359
L45818 43321
L45837 43303
L45874 43284
" />
<path d="M41040 41678
L41040 41284
L41190 41284
L41228 41303
L41246 41321
L41265 41359
L41265 41415
L41246 41453
L41228 41471
L41190 41490
L41040 41490
" />
<path d="M41415 41565
L41603 41565
" />
<path d="M41378 41678
L41509 41284
L41640 41678
" />
<path d="M41734 41284
L41996 41284
L41828 41678
" />
<path d="M45040 41678
L45040 41284
L45190 41284
L45228 41303
L45246 41321
L45265 41359
L45265 41415
L45246 41453
L45228 41471
L45190 41490
L45040 41490
" />
<path d="M45415 41565
L45603 41565
" />
<path d="M45378 41678
L45509 41284
L45640 41678
" />
<path d="M45940 41284
L45865 41284
L45828 41303
L45809 41321
L45771 41378
L45753 41453
L45753 41603
L45771 41640
L45790 41659
L45828 41678
L45903 41678
L45940 41659
L45959 41640
L45978 41603
L45978 41509
L45959 41471
L45940 41453
L45903 41434
L45828 41434
L45790 41453
L45771 41471
L45753 41509
" />
<path d="M44040 39678
L44040 39284
L44190 39284
L44228 39303
L44246 39321
L44265 39359
L44265 39415
L44246 39453
L44228 39471
L44190 39490
L44040 39490
" />
<path d="M44415 39565
L44603 39565
" />
<path d="M44378 39678
L44509 39284
L44640 39678
" />
<path d="M44734 39284
L44978 39284
L44846 39434
L44903 39434
L44940 39453
L44959 39471
L44978 39509
L44978 39603
L44959 39640
L44940 39659
L44903 39678
L44790 39678
L44753 39659
L44734 39640
" />
<path d="M52510 40818
L52117 40818
L52398 40687
L52117 40556
L52510 40556
" />
<path d="M52117 40200
L52117 40275
L52135 40312
L52154 40331
L52210 40368
L52285 40387
L52435 40387
L52473 40368
L52492 40350
L52510 40312
L52510 40237
L52492 40200
L52473 40181
L52435 40162
L52342 40162
L52304 40181
L52285 40200
L52267 40237
L52267 40312
L52285 40350
L52304 40368
L52342 40387
" />
<path d="M52510 44818
L52117 44818
L52398 44687
L52117 44556
L52510 44556
" />
<path d="M52117 44181
L52117 44368
L52304 44387
L52285 44368
L52267 44331
L52267 44237
L52285 44200
L52304 44181
L52342 44162
L52435 44162
L52473 44181
L52492 44200
L52510 44237
L52510 44331
L52492 44368
L52473 44387
" />
<path d="M52510 42818
L52117 42818
L52398 42687
L52117 42556
L52510 42556
" />
<path d="M52248 42200
L52510 42200
" />
<path d="M52098 42293
L52379 42387
L52379 42143
" />
<path d="M52510 48818
L52117 48818
L52398 48687
L52117 48556
L52510 48556
" />
<path d="M52117 48406
L52117 48162
L52267 48293
L52267 48237
L52285 48200
L52304 48181
L52342 48162
L52435 48162
L52473 48181
L52492 48200
L52510 48237
L52510 48350
L52492 48387
L52473 48406
" />
<path d="M52510 46818
L52117 46818
L52398 46687
L52117 46556
L52510 46556
" />
<path d="M52154 46387
L52135 46368
L52117 46331
L52117 46237
L52135 46200
L52154 46181
L52192 46162
L52229 46162
L52285 46181
L52510 46406
L52510 46162
" />
<path d="M52510 50818
L52117 50818
L52398 50687
L52117 50556
L52510 50556
" />
<path d="M52510 50162
L52510 50387
" />
<path d="M52510 50275
L52117 50275
L52173 50312
L52210 50350
L52229 50387
" />
<path d="M58010 33315
L57617 33315
" />
<path d="M57804 33315
L57804 33090
" />
<path d="M58010 33090
L57617 33090
" />
<path d="M57898 32921
L57898 32734
" />
<path d="M58010 32959
L57617 32828
L58010 32696
" />
<path d="M58010 32378
L58010 32565
L57617 32565
" />
<path d="M58010 32040
L58010 32265
" />
<path d="M58010 32153
L57617 32153
L57673 32190
L57710 32228
L57729 32265
" />
<path d="M57654 31890
L57635 31871
L57617 31834
L57617 31740
L57635 31703
L57654 31684
L57692 31665
L57729 31665
L57785 31684
L58010 31909
L58010 31665
" />
<path d="M36510 49815
L36117 49815
" />
<path d="M36304 49815
L36304 49590
" />
<path d="M36510 49590
L36117 49590
" />
<path d="M36398 49421
L36398 49234
" />
<path d="M36510 49459
L36117 49328
L36510 49196
" />
<path d="M36510 48878
L36510 49065
L36117 49065
" />
<path d="M36510 48540
L36510 48765
" />
<path d="M36510 48653
L36117 48653
L36173 48690
L36210 48728
L36229 48765
" />
<path d="M36510 48165
L36510 48390
" />
<path d="M36510 48278
L36117 48278
L36173 48315
L36210 48353
L36229 48390
" />
<path d="M58010 41315
L57617 41315
" />
<path d="M57804 41315
L57804 41090
" />
<path d="M58010 41090
L57617 41090
" />
<path d="M57898 40921
L57898 40734
" />
<path d="M58010 40959
L57617 40828
L58010 40696
" />
<path d="M58010 40378
L58010 40565
L57617 40565
" />
<path d="M58010 40040
L58010 40265
" />
<path d="M58010 40153
L57617 40153
L57673 40190
L57710 40228
L57729 40265
" />
<path d="M57617 39796
L57617 39759
L57635 39721
L57654 39703
L57692 39684
L57767 39665
L57860 39665
L57935 39684
L57973 39703
L57992 39721
L58010 39759
L58010 39796
L57992 39834
L57973 39853
L57935 39871
L57860 39890
L57767 39890
L57692 39871
L57654 39853
L57635 39834
L57617 39796
" />
<path d="M58010 37128
L57617 37128
" />
<path d="M57804 37128
L57804 36903
" />
<path d="M58010 36903
L57617 36903
" />
<path d="M57898 36734
L57898 36546
" />
<path d="M58010 36771
L57617 36640
L58010 36509
" />
<path d="M58010 36190
L58010 36378
L57617 36378
" />
<path d="M58010 36040
L58010 35965
L57992 35928
L57973 35909
L57917 35871
L57842 35853
L57692 35853
L57654 35871
L57635 35890
L57617 35928
L57617 36003
L57635 36040
L57654 36059
L57692 36078
L57785 36078
L57823 36059
L57842 36040
L57860 36003
L57860 35928
L57842 35890
L57823 35871
L57785 35853
" />
<path d="M58010 52628
L57617 52628
" />
<path d="M57804 52628
L57804 52403
" />
<path d="M58010 52403
L57617 52403
" />
<path d="M57898 52234
L57898 52046
" />
<path d="M58010 52271
L57617 52140
L58010 52009
" />
<path d="M58010 51690
L58010 51878
L57617 51878
" />
<path d="M57785 51503
L57767 51540
L57748 51559
L57710 51578
L57692 51578
L57654 51559
L57635 51540
L57617 51503
L57617 51428
L57635 51390
L57654 51371
L57692 51353
L57710 51353
L57748 51371
L57767 51390
L57785 51428
L57785 51503
L57804 51540
L57823 51559
L57860 51578
L57935 51578
L57973 51559
L57992 51540
L58010 51503
L58010 51428
L57992 51390
L57973 51371
L57935 51353
L57860 51353
L57823 51371
L57804 51390
L57785 51428
" />
<path d="M58010 49128
L57617 49128
" />
<path d="M57804 49128
L57804 48903
" />
<path d="M58010 48903
L57617 48903
" />
<path d="M57898 48734
L57898 48546
" />
<path d="M58010 48771
L57617 48640
L58010 48509
" />
<path d="M58010 48190
L58010 48378
L57617 48378
" />
<path d="M57617 48096
L57617 47834
L58010 48003
" />
<path d="M36510 37128
L36117 37128
" />
<path d="M36304 37128
L36304 36903
" />
<path d="M36510 36903
L36117 36903
" />
<path d="M36398 36734
L36398 36546
" />
<path d="M36510 36771
L36117 36640
L36510 36509
" />
<path d="M36510 36190
L36510 36378
L36117 36378
" />
<path d="M36117 35890
L36117 35965
L36135 36003
L36154 36021
L36210 36059
L36285 36078
L36435 36078
L36473 36059
L36492 36040
L36510 36003
L36510 35928
L36492 35890
L36473 35871
L36435 35853
L36342 35853
L36304 35871
L36285 35890
L36267 35928
L36267 36003
L36285 36040
L36304 36059
L36342 36078
" />
<path d="M36510 45128
L36117 45128
" />
<path d="M36304 45128
L36304 44903
" />
<path d="M36510 44903
L36117 44903
" />
<path d="M36398 44734
L36398 44546
" />
<path d="M36510 44771
L36117 44640
L36510 44509
" />
<path d="M36510 44190
L36510 44378
L36117 44378
" />
<path d="M36117 43871
L36117 44059
L36304 44078
L36285 44059
L36267 44021
L36267 43928
L36285 43890
L36304 43871
L36342 43853
L36435 43853
L36473 43871
L36492 43890
L36510 43928
L36510 44021
L36492 44059
L36473 44078
" />
<path d="M36510 54128
L36117 54128
" />
<path d="M36304 54128
L36304 53903
" />
<path d="M36510 53903
L36117 53903
" />
<path d="M36398 53734
L36398 53546
" />
<path d="M36510 53771
L36117 53640
L36510 53509
" />
<path d="M36510 53190
L36510 53378
L36117 53378
" />
<path d="M36248 52890
L36510 52890
" />
<path d="M36098 52984
L36379 53078
L36379 52834
" />
<path d="M36510 41128
L36117 41128
" />
<path d="M36304 41128
L36304 40903
" />
<path d="M36510 40903
L36117 40903
" />
<path d="M36398 40734
L36398 40546
" />
<path d="M36510 40771
L36117 40640
L36510 40509
" />
<path d="M36510 40190
L36510 40378
L36117 40378
" />
<path d="M36117 40096
L36117 39853
L36267 39984
L36267 39928
L36285 39890
L36304 39871
L36342 39853
L36435 39853
L36473 39871
L36492 39890
L36510 39928
L36510 40040
L36492 40078
L36473 40096
" />
<path d="M36510 33128
L36117 33128
" />
<path d="M36304 33128
L36304 32903
" />
<path d="M36510 32903
L36117 32903
" />
<path d="M36398 32734
L36398 32546
" />
<path d="M36510 32771
L36117 32640
L36510 32509
" />
<path d="M36510 32190
L36510 32378
L36117 32378
" />
<path d="M36154 32078
L36135 32059
L36117 32021
L36117 31928
L36135 31890
L36154 31871
L36192 31853
L36229 31853
L36285 31871
L36510 32096
L36510 31853
" />
<path d="M58010 45128
L57617 45128
" />
<path d="M57804 45128
L57804 44903
" />
<path d="M58010 44903
L57617 44903
" />
<path d="M57898 44734
L57898 44546
" />
<path d="M58010 44771
L57617 44640
L58010 44509
" />
<path d="M58010 44190
L58010 44378
L57617 44378
" />
<path d="M58010 43853
L58010 44078
" />
<path d="M58010 43965
L57617 43965
L57673 44003
L57710 44040
L57729 44078
" />
<path d="M32168 13229
L32186 13248
L32205 13304
L32205 13341
L32186 13398
L32149 13435
L32111 13454
L32036 13473
L31980 13473
L31905 13454
L31868 13435
L31830 13398
L31811 13341
L31811 13304
L31830 13248
L31849 13229
" />
<path d="M32205 12854
L32205 13079
" />
<path d="M32205 12967
L31811 12967
L31868 13004
L31905 13041
L31924 13079
" />
<path d="M31980 12629
L31961 12667
L31943 12685
L31905 12704
L31886 12704
L31849 12685
L31830 12667
L31811 12629
L31811 12554
L31830 12517
L31849 12498
L31886 12479
L31905 12479
L31943 12498
L31961 12517
L31980 12554
L31980 12629
L31999 12667
L32018 12685
L32055 12704
L32130 12704
L32168 12685
L32186 12667
L32205 12629
L32205 12554
L32186 12517
L32168 12498
L32130 12479
L32055 12479
L32018 12498
L31999 12517
L31980 12554
" />
<path d="M28668 13229
L28686 13248
L28705 13304
L28705 13341
L28686 13398
L28649 13435
L28611 13454
L28536 13473
L28480 13473
L28405 13454
L28368 13435
L28330 13398
L28311 13341
L28311 13304
L28330 13248
L28349 13229
" />
<path d="M28705 12854
L28705 13079
" />
<path d="M28705 12967
L28311 12967
L28368 13004
L28405 13041
L28424 13079
" />
<path d="M28311 12723
L28311 12460
L28705 12629
" />
<path d="M63168 22729
L63186 22748
L63205 22804
L63205 22841
L63186 22898
L63149 22935
L63111 22954
L63036 22973
L62980 22973
L62905 22954
L62868 22935
L62830 22898
L62811 22841
L62811 22804
L62830 22748
L62849 22729
" />
<path d="M63205 22354
L63205 22579
" />
<path d="M63205 22467
L62811 22467
L62868 22504
L62905 22541
L62924 22579
" />
<path d="M62811 22017
L62811 22092
L62830 22129
L62849 22148
L62905 22185
L62980 22204
L63130 22204
L63168 22185
L63186 22167
L63205 22129
L63205 22054
L63186 22017
L63168 21998
L63130 21979
L63036 21979
L62999 21998
L62980 22017
L62961 22054
L62961 22129
L62980 22167
L62999 22185
L63036 22204
" />
<path d="M66668 22729
L66686 22748
L66705 22804
L66705 22841
L66686 22898
L66649 22935
L66611 22954
L66536 22973
L66480 22973
L66405 22954
L66368 22935
L66330 22898
L66311 22841
L66311 22804
L66330 22748
L66349 22729
" />
<path d="M66705 22354
L66705 22579
" />
<path d="M66705 22467
L66311 22467
L66368 22504
L66405 22541
L66424 22579
" />
<path d="M66311 21998
L66311 22185
L66499 22204
L66480 22185
L66461 22148
L66461 22054
L66480 22017
L66499 21998
L66536 21979
L66630 21979
L66668 21998
L66686 22017
L66705 22054
L66705 22148
L66686 22185
L66668 22204
" />
<path d="M59668 22729
L59686 22748
L59705 22804
L59705 22841
L59686 22898
L59649 22935
L59611 22954
L59536 22973
L59480 22973
L59405 22954
L59368 22935
L59330 22898
L59311 22841
L59311 22804
L59330 22748
L59349 22729
" />
<path d="M59705 22354
L59705 22579
" />
<path d="M59705 22467
L59311 22467
L59368 22504
L59405 22541
L59424 22579
" />
<path d="M59443 22017
L59705 22017
" />
<path d="M59293 22110
L59574 22204
L59574 21960
" />
<path d="M75168 13229
L75186 13248
L75205 13304
L75205 13341
L75186 13398
L75149 13435
L75111 13454
L75036 13473
L74980 13473
L74905 13454
L74868 13435
L74830 13398
L74811 13341
L74811 13304
L74830 13248
L74849 13229
" />
<path d="M75205 12854
L75205 13079
" />
<path d="M75205 12967
L74811 12967
L74868 13004
L74905 13041
L74924 13079
" />
<path d="M74811 12723
L74811 12479
L74961 12610
L74961 12554
L74980 12517
L74999 12498
L75036 12479
L75130 12479
L75168 12498
L75186 12517
L75205 12554
L75205 12667
L75186 12704
L75168 12723
" />
<path d="M72168 13229
L72186 13248
L72205 13304
L72205 13341
L72186 13398
L72149 13435
L72111 13454
L72036 13473
L71980 13473
L71905 13454
L71868 13435
L71830 13398
L71811 13341
L71811 13304
L71830 13248
L71849 13229
" />
<path d="M72205 12854
L72205 13079
" />
<path d="M72205 12967
L71811 12967
L71868 13004
L71905 13041
L71924 13079
" />
<path d="M71849 12704
L71830 12685
L71811 12648
L71811 12554
L71830 12517
L71849 12498
L71886 12479
L71924 12479
L71980 12498
L72205 12723
L72205 12479
" />
<path d="M69168 13229
L69186 13248
L69205 13304
L69205 13341
L69186 13398
L69149 13435
L69111 13454
L69036 13473
L68980 13473
L68905 13454
L68868 13435
L68830 13398
L68811 13341
L68811 13304
L68830 13248
L68849 13229
" />
<path d="M69205 12854
L69205 13079
" />
<path d="M69205 12967
L68811 12967
L68868 13004
L68905 13041
L68924 13079
" />
<path d="M69205 12479
L69205 12704
" />
<path d="M69205 12592
L68811 12592
L68868 12629
L68905 12667
L68924 12704
" />
<path d="M42668 22729
L42686 22748
L42705 22804
L42705 22841
L42686 22898
L42649 22935
L42611 22954
L42536 22973
L42480 22973
L42405 22954
L42368 22935
L42330 22898
L42311 22841
L42311 22804
L42330 22748
L42349 22729
" />
<path d="M42705 22354
L42705 22579
" />
<path d="M42705 22467
L42311 22467
L42368 22504
L42405 22541
L42424 22579
" />
<path d="M42311 22110
L42311 22073
L42330 22035
L42349 22017
L42386 21998
L42461 21979
L42555 21979
L42630 21998
L42668 22017
L42686 22035
L42705 22073
L42705 22110
L42686 22148
L42668 22167
L42630 22185
L42555 22204
L42461 22204
L42386 22185
L42349 22167
L42330 22148
L42311 22110
" />
<path d="M25168 13041
L25186 13060
L25205 13116
L25205 13154
L25186 13210
L25149 13248
L25111 13266
L25036 13285
L24980 13285
L24905 13266
L24868 13248
L24830 13210
L24811 13154
L24811 13116
L24830 13060
L24849 13041
" />
<path d="M25205 12854
L25205 12779
L25186 12742
L25168 12723
L25111 12685
L25036 12667
L24886 12667
L24849 12685
L24830 12704
L24811 12742
L24811 12817
L24830 12854
L24849 12873
L24886 12892
L24980 12892
L25018 12873
L25036 12854
L25055 12817
L25055 12742
L25036 12704
L25018 12685
L24980 12667
" />
<path d="M39168 22541
L39186 22560
L39205 22616
L39205 22654
L39186 22710
L39149 22748
L39111 22766
L39036 22785
L38980 22785
L38905 22766
L38868 22748
L38830 22710
L38811 22654
L38811 22616
L38830 22560
L38849 22541
" />
<path d="M38980 22317
L38961 22354
L38943 22373
L38905 22392
L38886 22392
L38849 22373
L38830 22354
L38811 22317
L38811 22242
L38830 22204
L38849 22185
L38886 22167
L38905 22167
L38943 22185
L38961 22204
L38980 22242
L38980 22317
L38999 22354
L39018 22373
L39055 22392
L39130 22392
L39168 22373
L39186 22354
L39205 22317
L39205 22242
L39186 22204
L39168 22185
L39130 22167
L39055 22167
L39018 22185
L38999 22204
L38980 22242
" />
<path d="M35668 22541
L35686 22560
L35705 22616
L35705 22654
L35686 22710
L35649 22748
L35611 22766
L35536 22785
L35480 22785
L35405 22766
L35368 22748
L35330 22710
L35311 22654
L35311 22616
L35330 22560
L35349 22541
" />
<path d="M35311 22410
L35311 22148
L35705 22317
" />
<path d="M53410 36613
L53392 36631
L53335 36650
L53298 36650
L53242 36631
L53204 36594
L53185 36556
L53167 36481
L53167 36425
L53185 36350
L53204 36313
L53242 36275
L53298 36256
L53335 36256
L53392 36275
L53410 36294
" />
<path d="M53748 36256
L53673 36256
L53635 36275
L53616 36294
L53579 36350
L53560 36425
L53560 36575
L53579 36613
L53598 36631
L53635 36650
L53710 36650
L53748 36631
L53766 36613
L53785 36575
L53785 36481
L53766 36444
L53748 36425
L53710 36406
L53635 36406
L53598 36425
L53579 36444
L53560 36481
" />
<path d="M53910 53113
L53892 53131
L53835 53150
L53798 53150
L53742 53131
L53704 53094
L53685 53056
L53667 52981
L53667 52925
L53685 52850
L53704 52813
L53742 52775
L53798 52756
L53835 52756
L53892 52775
L53910 52794
" />
<path d="M54285 53150
L54060 53150
" />
<path d="M54173 53150
L54173 52756
L54135 52813
L54098 52850
L54060 52869
" />
<path d="M48222 21678
L48222 21284
L48315 21284
L48372 21303
L48409 21340
L48428 21378
L48447 21453
L48447 21509
L48428 21584
L48409 21621
L48372 21659
L48315 21678
L48222 21678
" />
<path d="M48597 21659
L48653 21678
L48747 21678
L48784 21659
L48803 21640
L48822 21603
L48822 21565
L48803 21528
L48784 21509
L48747 21490
L48672 21471
L48634 21453
L48615 21434
L48597 21396
L48597 21359
L48615 21321
L48634 21303
L48672 21284
L48765 21284
L48822 21303
" />
<path d="M48990 21678
L48990 21284
L49215 21678
L49215 21284
" />
<path d="M49403 21528
L49703 21528
" />
<path d="M50096 21678
L49871 21678
" />
<path d="M49984 21678
L49984 21284
L49946 21340
L49909 21378
L49871 21396
" />
<path d="M50453 21284
L50265 21284
L50246 21471
L50265 21453
L50303 21434
L50396 21434
L50434 21453
L50453 21471
L50471 21509
L50471 21603
L50453 21640
L50434 21659
L50396 21678
L50303 21678
L50265 21659
L50246 21640
" />
<path d="M50715 21284
L50753 21284
L50790 21303
L50809 21321
L50828 21359
L50846 21434
L50846 21528
L50828 21603
L50809 21640
L50790 21659
L50753 21678
L50715 21678
L50678 21659
L50659 21640
L50640 21603
L50621 21528
L50621 21434
L50640 21359
L50659 21321
L50678 21303
L50715 21284
" />
<path d="M51184 21415
L51184 21678
" />
<path d="M51090 21265
L50996 21546
L51240 21546
" />
<path d="M51390 21528
L51690 21528
" />
<path d="M51840 21284
L52084 21284
L51952 21434
L52009 21434
L52046 21453
L52065 21471
L52084 21509
L52084 21603
L52065 21640
L52046 21659
L52009 21678
L51896 21678
L51859 21659
L51840 21640
" />
<path d="M52234 21565
L52421 21565
" />
<path d="M52196 21678
L52327 21284
L52459 21678
" />
<path d="M52796 21678
L52571 21678
" />
<path d="M52684 21678
L52684 21284
L52646 21340
L52609 21378
L52571 21396
" />
<path d="M20684 20028
L20984 20028
" />
<path d="M20834 20178
L20834 19878
" />
<path d="M21303 19971
L21359 19990
L21378 20009
L21396 20046
L21396 20103
L21378 20140
L21359 20159
L21321 20178
L21171 20178
L21171 19784
L21303 19784
L21340 19803
L21359 19821
L21378 19859
L21378 19896
L21359 19934
L21340 19953
L21303 19971
L21171 19971
" />
<path d="M21546 20065
L21734 20065
" />
<path d="M21509 20178
L21640 19784
L21771 20178
" />
<path d="M21846 19784
L22071 19784
" />
<path d="M21959 20178
L21959 19784
" />
<path d="M22146 19784
L22371 19784
" />
<path d="M22259 20178
L22259 19784
" />
<path d="M20684 23028
L20984 23028
" />
<path d="M21303 22971
L21359 22990
L21378 23009
L21396 23046
L21396 23103
L21378 23140
L21359 23159
L21321 23178
L21171 23178
L21171 22784
L21303 22784
L21340 22803
L21359 22821
L21378 22859
L21378 22896
L21359 22934
L21340 22953
L21303 22971
L21171 22971
" />
<path d="M21546 23065
L21734 23065
" />
<path d="M21509 23178
L21640 22784
L21771 23178
" />
<path d="M21846 22784
L22071 22784
" />
<path d="M21959 23178
L21959 22784
" />
<path d="M22146 22784
L22371 22784
" />
<path d="M22259 23178
L22259 22784
" />
</g> 
</svg>
