M48
;DRILL file {KiCad 4.0.7} date 11/29/18 18:14:27
;FORMAT={-:-/ absolute / inch / decimal}
FMAT,2
INCH,TZ
T1C0.016
T2C0.026
T3C0.028
T4C0.030
T5C0.031
T6C0.039
%
G90
G05
M72
T1
X2.05Y-1.15
X2.2Y-1.45
X2.45Y-2.1
X2.95Y-2.4
X3.7Y-2.7
X3.75Y-2.8
X5.2Y-3.35
X5.5Y-3.35
X5.85Y-2.7
X5.9Y-2.8
X7.15Y-2.2
X7.2Y-2.3
X7.6Y-1.15
X7.8Y-1.45
T2
X3.7Y-3.25
X3.7Y-3.65
X3.7Y-4.05
X3.7Y-4.45
X3.7Y-4.9
X3.7Y-5.35
X3.75Y-3.25
X3.75Y-3.65
X3.75Y-4.05
X3.75Y-4.45
X3.75Y-4.9
X3.75Y-5.35
X3.8Y-3.25
X3.8Y-3.65
X3.8Y-4.05
X3.8Y-4.45
X3.8Y-4.9
X3.8Y-5.35
X4.3Y-3.65
X4.3Y-3.75
X4.3Y-3.95
X4.3Y-4.15
X4.3Y-4.95
X4.3Y-5.15
X4.3Y-5.65
X4.4Y-3.75
X4.4Y-4.15
X4.4Y-4.35
X4.4Y-5.55
X4.4Y-5.65
X5.3Y-4.05
X5.3Y-4.25
X5.3Y-4.45
X5.3Y-4.65
X5.3Y-4.85
X5.3Y-5.05
X5.35Y-4.05
X5.35Y-4.25
X5.35Y-4.45
X5.35Y-4.65
X5.35Y-4.85
X5.35Y-5.05
X5.4Y-4.05
X5.4Y-4.25
X5.4Y-4.45
X5.4Y-4.65
X5.4Y-4.85
X5.4Y-5.05
X5.85Y-3.25
X5.85Y-3.65
X5.85Y-4.05
X5.85Y-4.45
X5.85Y-4.85
X5.85Y-5.2
X5.9Y-3.25
X5.9Y-3.65
X5.9Y-4.05
X5.9Y-4.45
X5.9Y-4.85
X5.9Y-5.2
X5.95Y-3.25
X5.95Y-3.65
X5.95Y-4.05
X5.95Y-4.45
X5.95Y-4.85
X5.95Y-5.2
X6.3Y-3.85
X6.3Y-4.05
X6.3Y-4.15
X6.3Y-4.85
X6.3Y-5.65
X6.4Y-4.25
X6.4Y-4.95
X6.4Y-5.65
T3
X6.65Y-5.3
X6.85Y-5.3
X6.95Y-5.4
X6.95Y-5.6
T4
X3.75Y-1.1
X3.75Y-1.5
X4.75Y-2.05
X4.75Y-2.5
X5.35Y-2.05
X5.35Y-2.5
X6.15Y-1.1
X6.15Y-1.5
T5
X2.4Y-1.15
X2.4Y-1.4453
X2.75Y-1.15
X2.75Y-1.4453
X3.1Y-1.15
X3.1Y-1.4453
X3.45Y-2.1
X3.45Y-2.3953
X3.8Y-2.1
X3.8Y-2.3953
X4.15Y-2.1
X4.15Y-2.3953
X5.2Y-3.75
X5.25Y-5.4
X5.4953Y-3.75
X5.5453Y-5.4
X5.85Y-2.1
X5.85Y-2.3953
X6.2Y-2.1
X6.2Y-2.3953
X6.55Y-2.1
X6.55Y-2.3953
X6.8Y-1.1547
X6.8Y-1.45
X7.1Y-1.1547
X7.1Y-1.45
X7.4Y-1.1547
X7.4Y-1.45
T6
X2.2Y-2.1
X2.2Y-2.4
X6.9Y-2.2
X6.9Y-2.3
X7.2Y-4.9
X7.2Y-5.
X7.2Y-5.1
X7.2Y-5.2
X7.2Y-5.3
X7.2Y-5.4
T0
M30
